<svg width="78" height="78" viewBox="0 0 78 78" fill="none" xmlns="http://www.w3.org/2000/svg">
<g clip-path="url(#clip0_542_2627)">
<path d="M50.6527 56.4353L49.5488 50.0008C49.4289 49.3008 48.7643 48.8305 48.0644 48.951C47.3644 49.071 46.8944 49.7357 47.0146 50.4356L47.6779 54.3025L39.5985 50.055C39.2237 49.8582 38.7765 49.8582 38.402 50.055L30.3228 54.3027L31.8657 45.306C31.9373 44.8889 31.799 44.4634 31.4961 44.168L24.9598 37.7967L33.9926 36.4841C34.6955 36.382 35.1822 35.7297 35.0801 35.0268C34.9781 34.3239 34.3235 33.8371 33.623 33.9393L22.0121 35.6265C21.5278 35.6968 21.1253 36.036 20.974 36.5015C20.8229 36.9669 20.949 37.478 21.2993 37.8195L29.217 45.5374L27.3481 56.4355C27.2654 56.9177 27.4636 57.4053 27.8595 57.6929C28.2553 57.9804 28.7801 58.0185 29.2134 57.7909L39.0003 52.6455L48.7873 57.7909C48.9757 57.8896 49.1811 57.9384 49.3855 57.9384C49.6523 57.9384 49.9175 57.8555 50.1413 57.6926C50.5373 57.405 50.7356 56.9175 50.6527 56.4353Z" fill="#B3DE4F"/>
<path d="M57.026 36.5032C56.8749 36.0378 56.4724 35.6986 55.988 35.6283L45.0459 34.0383L40.1524 24.123C39.9358 23.6841 39.4888 23.4062 38.9993 23.4062C38.5099 23.4062 38.063 23.6841 37.8463 24.123L34.9374 30.0169C34.6239 30.6534 34.8853 31.4244 35.5219 31.7385C36.159 32.0533 36.9298 31.7914 37.2439 31.1546L38.9996 27.5969L43.0392 35.7822C43.2266 36.1615 43.5884 36.4248 44.0072 36.4856L53.0401 37.7982L46.5036 44.1695C45.9951 44.6651 45.9849 45.4792 46.4803 45.9876C46.7325 46.2461 47.0666 46.3759 47.4013 46.3759C47.7247 46.3759 48.0486 46.2545 48.2986 46.0109L56.7005 37.8212C57.0512 37.4796 57.1772 36.9688 57.026 36.5032Z" fill="#B3DE4F"/>
<path d="M33.6057 67.7661C29.2764 66.7859 25.2461 64.6588 21.9284 61.6495C21.5134 61.1908 21.0316 60.7073 20.4862 60.2382C19.9549 59.6771 19.446 59.0917 18.9626 58.4823C16.7035 55.6344 15.0518 52.3399 14.0879 48.8362C14.0053 48.4405 13.9037 48.0263 13.7795 47.6017C13.3333 45.6266 13.1016 43.5957 13.1016 41.5487C13.1016 35.0378 15.4018 28.7582 19.5785 23.8666C19.6365 23.7985 19.6864 23.7261 19.7278 23.6507C19.7313 23.6496 19.7347 23.649 19.7382 23.6478C21.31 23.141 25.1602 21.586 26.9618 18.1046C28.7583 14.6327 27.847 10.529 27.3718 8.92562C27.2414 8.4858 26.932 8.10982 26.5225 7.89394C26.116 7.67944 25.6348 7.63648 25.202 7.77573C23.6301 8.28257 19.7799 9.83739 17.9783 13.3189C16.2437 16.6712 17.0336 20.6119 17.5177 22.3227C16.1212 23.977 14.9188 25.773 13.9249 27.6753C13.7827 26.633 13.4947 25.5713 12.9884 24.5582C12.3737 23.3276 10.4082 20.2863 5.44801 18.6305C5.01154 18.4846 4.52359 18.523 4.10891 18.7355C3.69042 18.9495 3.37111 19.3272 3.23278 19.7713C2.70552 21.4603 1.6775 25.7864 3.51736 29.4689C4.13206 30.6993 6.0976 33.7404 11.0581 35.3966C11.0919 35.4078 11.126 35.417 11.1603 35.4261C10.7452 37.4252 10.5305 39.476 10.5305 41.5485C10.5305 41.7789 10.5337 42.0092 10.539 42.2391C9.33887 41.213 6.50329 39.3805 1.68634 39.5283C1.22672 39.5424 0.782024 39.7472 0.466063 40.0898C0.147665 40.4355 -0.0214369 40.9003 0.00232872 41.3648C0.0916022 43.1318 0.62313 47.5466 3.62232 50.3657C4.5894 51.2743 7.31711 53.3286 12.1999 53.3286C12.3795 53.3286 12.5623 53.3259 12.7476 53.3203C12.8082 53.3184 12.8688 53.3126 12.9287 53.3043C13.5623 54.7942 14.3156 56.2315 15.1841 57.5987C13.6456 57.3533 10.2403 57.2605 6.18322 59.9541C5.80008 60.2083 5.52997 60.6166 5.44207 61.0744C5.35356 61.5359 5.45486 62.02 5.72009 62.4028C6.72754 63.8574 9.50675 67.3287 13.541 68.1429C13.9514 68.2257 14.57 68.3129 15.3557 68.3129C17.1527 68.3127 19.8216 67.8558 22.8528 65.8432C22.8895 65.8188 22.9243 65.7917 22.959 65.7648C25.9946 67.9089 29.4204 69.4551 33.0376 70.2741C33.1333 70.2958 33.2287 70.306 33.3226 70.306C33.9099 70.306 34.4404 69.9009 34.5755 69.304C34.7327 68.6115 34.2983 67.923 33.6057 67.7661ZM20.2621 14.5008C21.3778 12.3444 23.7241 11.1114 25.1323 10.5377C25.4661 12.0493 25.8034 14.7477 24.6781 16.9227C23.5623 19.0792 21.216 20.3121 19.8078 20.8858C19.474 19.3743 19.1367 16.676 20.2621 14.5008ZM11.0503 32.6498C9.56662 32.0389 7.001 30.6885 5.81759 28.3197C4.62215 25.927 5.06806 22.9697 5.45593 21.3774C6.93945 21.9883 9.50507 23.3386 10.6885 25.7075V25.7077C11.8836 28.1001 11.4377 31.0578 11.0503 32.6498ZM5.38342 48.4919C3.43448 46.6599 2.83029 43.7311 2.64336 42.1027C4.24693 42.1631 7.12105 42.543 9.05048 44.3564C10.2254 45.4604 10.9092 46.962 11.31 48.3385C11.3883 48.6755 11.4734 49.0108 11.5631 49.3447C11.6731 49.8662 11.7447 50.3453 11.7905 50.7455C10.187 50.6852 7.3127 50.3051 5.38342 48.4919ZM14.0504 65.6223C11.4289 65.0932 9.37132 62.9225 8.35396 61.6376C9.74837 60.8436 12.3908 59.6509 14.9864 60.1751C16.4446 60.4694 17.7277 61.2721 18.7551 62.1474C19.1791 62.589 19.6158 63.0163 20.0651 63.4287C20.2995 63.6897 20.5076 63.9383 20.6831 64.1597C19.2887 64.9538 16.6469 66.1459 14.0504 65.6223Z" fill="#B3DE4F"/>
<path d="M77.5335 40.0899C77.2175 39.7473 76.773 39.5429 76.3138 39.5287C71.4973 39.3811 68.661 41.2139 67.4608 42.2398C67.4661 42.0098 67.4693 41.7796 67.4693 41.5489C67.4693 39.4763 67.2545 37.4256 66.8396 35.4266C66.8738 35.4174 66.908 35.4084 66.9416 35.397C71.9025 33.7407 73.8679 30.6998 74.4826 29.4693C76.3219 25.7875 75.2943 21.4612 74.7671 19.7716C74.6284 19.3272 74.3087 18.9497 73.8908 18.7359C73.4763 18.5239 72.9884 18.4855 72.5521 18.631C67.5918 20.2868 65.6261 23.3279 65.0113 24.5587C64.505 25.5717 64.2168 26.6334 64.0748 27.6756C63.0811 25.7734 61.8786 23.9773 60.4822 22.323C60.9665 20.6123 61.7565 16.6717 60.0217 13.3192C58.2201 9.83752 54.3699 8.2827 52.7982 7.77601C52.3657 7.63631 51.8841 7.67942 51.4772 7.89423C51.0679 8.11025 50.7584 8.48654 50.6285 8.9259C50.1532 10.5292 49.2419 14.6327 51.0383 18.1048C52.8399 21.5863 56.6901 23.1409 58.2618 23.6479C58.2652 23.649 58.2687 23.6496 58.2722 23.6508C58.3136 23.7262 58.3634 23.7988 58.4215 23.8669C62.5981 28.7585 64.8984 35.0381 64.8984 41.5489C64.8984 43.5961 64.6668 45.6273 64.2205 47.6026C64.0963 48.0268 63.9948 48.4405 63.9124 48.8357C62.9485 52.3399 61.2968 55.6345 59.0374 58.4826C58.5542 59.0916 58.0457 59.6768 57.5146 60.2374C56.9684 60.7072 56.4858 61.1914 56.0705 61.6507C52.7532 64.6595 48.7233 66.7862 44.3944 67.7664C43.7019 67.9233 43.2677 68.6117 43.4245 69.3043C43.5596 69.9012 44.0898 70.3063 44.6773 70.3063C44.7715 70.3063 44.8667 70.2958 44.9624 70.2744C48.5796 69.4553 52.0054 67.909 55.041 65.7651C55.0754 65.7922 55.11 65.819 55.1467 65.8434C58.179 67.8566 60.8471 68.3133 62.6442 68.3133C63.4293 68.3133 64.0485 68.226 64.4586 68.1433C68.4937 67.329 71.2723 63.8579 72.2797 62.4033C72.545 62.0204 72.6463 61.5364 72.5578 61.0748C72.4699 60.6171 72.1998 60.2088 71.8171 59.955C67.76 57.2612 64.3542 57.354 62.8158 57.5994C63.6844 56.2323 64.4377 54.7946 65.0713 53.3049C65.1313 53.3132 65.1916 53.3189 65.2524 53.3209C65.4381 53.3265 65.6205 53.3292 65.8001 53.3292C70.6827 53.3292 73.411 51.2749 74.3777 50.3663C77.3772 47.5472 77.9087 43.1326 77.998 41.3652C78.0211 40.9001 77.852 40.4352 77.5335 40.0899ZM58.1921 20.8861C56.7836 20.3125 54.4375 19.0796 53.3219 16.9232C52.1966 14.7483 52.5336 12.05 52.8676 10.5382C54.2761 11.1117 56.622 12.3446 57.7378 14.5011C58.863 16.6759 58.5262 19.3742 58.1921 20.8861ZM63.0134 60.1756C65.6091 59.652 68.2515 60.8439 69.646 61.6381C68.6291 62.9229 66.5714 65.0935 63.9494 65.6228C61.3549 66.1459 58.7114 64.9544 57.317 64.1603C57.492 63.9391 57.7 63.6907 57.9341 63.4299C58.384 63.0168 58.8214 62.5887 59.2461 62.1464C60.2731 61.2717 61.5557 60.4697 63.0134 60.1756ZM67.3115 25.7079C68.4951 23.339 71.0605 21.9888 72.5442 21.3779C72.9316 22.9703 73.3775 25.9278 72.1825 28.3202C70.9991 30.6887 68.4337 32.039 66.9498 32.6502C66.562 31.0582 66.1161 28.1008 67.3115 25.7079ZM72.6164 48.4923C70.687 50.3058 67.8129 50.6856 66.2093 50.7459C66.2553 50.3456 66.3269 49.8663 66.4371 49.3444C66.5265 49.0113 66.6113 48.6767 66.6896 48.3403C67.0903 46.9637 67.7745 45.4613 68.9498 44.3569C70.8792 42.5434 73.7532 42.1637 75.3569 42.1033C75.1697 43.7313 74.5655 46.6604 72.6164 48.4923Z" fill="#B3DE4F"/>
</g>
<defs>
<clipPath id="clip0_542_2627">
<rect width="78" height="78" fill="white"/>
</clipPath>
</defs>
</svg>
