<svg width="26" height="26" viewBox="0 0 26 26" fill="none" xmlns="http://www.w3.org/2000/svg">
<path d="M22.4449 10.6855C22.0273 10.7483 21.7397 11.1379 21.8026 11.5554C22.7181 17.4005 18.0263 22.858 12.1006 22.8067C-0.907803 22.2685 -0.906732 3.73091 12.1006 3.19347C14.2889 3.19347 16.3585 3.89838 18.0857 5.23187C18.4203 5.49004 18.9002 5.4281 19.1584 5.09392C19.4165 4.75975 19.3546 4.27936 19.0204 4.02119C17.023 2.47909 14.6303 1.66406 12.1006 1.66406C-2.93596 2.28546 -2.9358 23.715 12.1006 24.3361C18.9505 24.3949 24.3755 18.0857 23.3147 11.3277C23.2519 10.9101 22.8628 10.6215 22.4448 10.6853L22.4449 10.6855Z" fill="#FFA600"/>
<path d="M25.0104 3.55879C24.7108 3.26071 24.2268 3.26178 23.929 3.56124L12.1539 15.3876L8.26765 11.4836C7.96957 11.1843 7.48551 11.1832 7.1862 11.481C6.8869 11.7789 6.88567 12.2631 7.1836 12.5624L11.6119 17.0109C11.7553 17.155 11.9505 17.2362 12.1539 17.2362C12.3573 17.2362 12.5521 17.1551 12.6958 17.0109L25.0127 4.64024C25.3107 4.34109 25.3096 3.85672 25.0104 3.55879Z" fill="#FFA600"/>
</svg>
