<svg width="40" height="40" viewBox="0 0 40 40" fill="none" xmlns="http://www.w3.org/2000/svg">
<g clip-path="url(#clip0_542_7236)">
<path d="M17.478 9.74593C13.7259 10.6208 10.7055 13.5963 9.78316 17.3265C8.85793 21.0686 9.91684 24.8829 12.6159 27.5297C13.5706 28.466 14.1407 29.9667 14.1407 31.5441V31.7959C14.1407 32.8347 14.5939 33.7694 15.3125 34.4135V36.4834C15.3125 38.4219 16.8896 39.9991 18.8282 39.9991H21.1719C23.1104 39.9991 24.6875 38.4219 24.6875 36.4834V34.4135C25.4062 33.7694 25.8594 32.8348 25.8594 31.7959V31.5395C25.8594 29.9861 26.46 28.4569 27.4659 27.4488C29.4527 25.4576 30.5469 22.8119 30.5469 19.9991C30.5469 13.2741 24.315 8.15233 17.478 9.74593ZM22.3438 36.4834C22.3438 37.1296 21.8181 37.6553 21.1719 37.6553H18.8282C18.182 37.6553 17.6563 37.1296 17.6563 36.4834V35.3116H22.3438V36.4834ZM25.8068 25.7933C24.3507 27.2524 23.5157 29.3468 23.5157 31.5395V31.7959C23.5157 32.4421 22.99 32.9678 22.3438 32.9678H17.6563C17.0101 32.9678 16.4844 32.4421 16.4844 31.7959V31.5441C16.4844 29.3176 15.6725 27.2445 14.2568 25.8563C12.1561 23.7962 11.3343 20.8178 12.0583 17.8891C12.7712 15.0057 15.1075 12.7052 18.0102 12.0285C23.3752 10.7775 28.2032 14.7825 28.2032 19.9991C28.2032 22.1869 27.3521 24.2446 25.8068 25.7933Z" fill="#3B8EFA"/>
<path d="M10.8845 9.22809L7.56984 5.91355C7.11227 5.4559 6.37023 5.4559 5.91258 5.91355C5.45492 6.37121 5.45492 7.11316 5.91258 7.57082L9.22719 10.8854C9.68477 11.343 10.4269 11.343 10.8845 10.8854C11.3421 10.4277 11.3421 9.68574 10.8845 9.22809Z" fill="#3B8EFA"/>
<path d="M5.9375 18.8281H1.17188C0.524687 18.8281 0 19.3528 0 20C0 20.6472 0.524687 21.1719 1.17188 21.1719H5.9375C6.58469 21.1719 7.10938 20.6472 7.10938 20C7.10938 19.3528 6.58469 18.8281 5.9375 18.8281Z" fill="#3B8EFA"/>
<path d="M38.8281 18.8281H34.0625C33.4153 18.8281 32.8906 19.3528 32.8906 20C32.8906 20.6472 33.4153 21.1719 34.0625 21.1719H38.8281C39.4753 21.1719 40 20.6472 40 20C40 19.3528 39.4753 18.8281 38.8281 18.8281Z" fill="#3B8EFA"/>
<path d="M34.0866 5.91355C33.6291 5.4559 32.8871 5.4559 32.4293 5.91355L29.1147 9.22809C28.6571 9.68566 28.6571 10.4277 29.1147 10.8854C29.5723 11.343 30.3143 11.343 30.772 10.8854L34.0866 7.57082C34.5443 7.11324 34.5443 6.37121 34.0866 5.91355Z" fill="#3B8EFA"/>
<path d="M20 0C19.3528 0 18.8281 0.524687 18.8281 1.17188V5.9375C18.8281 6.58469 19.3528 7.10938 20 7.10938C20.6472 7.10938 21.1719 6.58469 21.1719 5.9375V1.17188C21.1719 0.524687 20.6472 0 20 0Z" fill="#3B8EFA"/>
<path d="M19.9995 14.1406C19.5178 14.1406 19.0271 14.1984 18.5419 14.312C16.5212 14.7837 14.8295 16.447 14.3326 18.451C14.1768 19.0792 14.5597 19.7147 15.1878 19.8705C15.8161 20.0263 16.4516 19.6433 16.6074 19.0152C16.8934 17.8623 17.9079 16.8668 19.0756 16.5942C19.3866 16.5213 19.6976 16.4844 19.9995 16.4844C20.6467 16.4844 21.1714 15.9597 21.1714 15.3125C21.1714 14.6653 20.6467 14.1406 19.9995 14.1406Z" fill="#3B8EFA"/>
</g>
<defs>
<clipPath id="clip0_542_7236">
<rect width="40" height="40" fill="white"/>
</clipPath>
</defs>
</svg>
