<svg width="78" height="78" viewBox="0 0 78 78" fill="none" xmlns="http://www.w3.org/2000/svg">
<g clip-path="url(#clip0_542_6470)">
<path d="M50.6527 56.4353L49.5488 50.0008C49.4289 49.3008 48.7643 48.8305 48.0644 48.951C47.3644 49.071 46.8944 49.7357 47.0146 50.4356L47.6779 54.3025L39.5985 50.055C39.2237 49.8582 38.7765 49.8582 38.402 50.055L30.3228 54.3027L31.8657 45.306C31.9373 44.8889 31.799 44.4634 31.4961 44.168L24.9598 37.7967L33.9926 36.4841C34.6955 36.382 35.1822 35.7297 35.0801 35.0268C34.9781 34.3239 34.3235 33.8371 33.623 33.9393L22.0121 35.6265C21.5278 35.6968 21.1253 36.036 20.974 36.5015C20.8229 36.9669 20.949 37.478 21.2993 37.8195L29.217 45.5374L27.3481 56.4355C27.2654 56.9177 27.4636 57.4053 27.8595 57.6929C28.2553 57.9804 28.7801 58.0185 29.2134 57.7909L39.0003 52.6455L48.7873 57.7909C48.9757 57.8896 49.1811 57.9384 49.3855 57.9384C49.6523 57.9384 49.9175 57.8555 50.1413 57.6926C50.5373 57.405 50.7356 56.9175 50.6527 56.4353Z" fill="#FF3116"/>
<path d="M57.0259 36.5032C56.8748 36.0378 56.4723 35.6986 55.9878 35.6283L45.0457 34.0383L40.1523 24.123C39.9357 23.6841 39.4887 23.4062 38.9992 23.4062C38.5097 23.4062 38.0629 23.6841 37.8461 24.123L34.9373 30.0169C34.6238 30.6534 34.8852 31.4244 35.5218 31.7385C36.1589 32.0533 36.9296 31.7914 37.2438 31.1546L38.9995 27.5969L43.0391 35.7822C43.2265 36.1615 43.5883 36.4248 44.0071 36.4856L53.04 37.7982L46.5035 44.1695C45.995 44.6651 45.9848 45.4792 46.4802 45.9876C46.7323 46.2461 47.0664 46.3759 47.4011 46.3759C47.7246 46.3759 48.0484 46.2545 48.2984 46.0109L56.7003 37.8212C57.051 37.4796 57.177 36.9688 57.0259 36.5032Z" fill="#FF3116"/>
<path d="M33.6056 67.7661C29.2763 66.7859 25.246 64.6588 21.9283 61.6495C21.5133 61.1908 21.0314 60.7073 20.486 60.2382C19.9548 59.6771 19.4458 59.0917 18.9625 58.4823C16.7033 55.6344 15.0516 52.3399 14.0878 48.8362C14.0052 48.4405 13.9036 48.0263 13.7794 47.6017C13.3332 45.6266 13.1015 43.5957 13.1015 41.5487C13.1015 35.0378 15.4017 28.7582 19.5784 23.8666C19.6364 23.7985 19.6862 23.7261 19.7277 23.6507C19.7312 23.6496 19.7345 23.649 19.738 23.6478C21.3099 23.141 25.1601 21.586 26.9617 18.1046C28.7582 14.6327 27.8468 10.529 27.3717 8.92562C27.2413 8.4858 26.9319 8.10982 26.5224 7.89394C26.1159 7.67944 25.6347 7.63648 25.2018 7.77573C23.63 8.28257 19.7798 9.83739 17.9782 13.3189C16.2436 16.6712 17.0335 20.6119 17.5176 22.3227C16.1211 23.977 14.9186 25.773 13.9247 27.6753C13.7826 26.633 13.4945 25.5713 12.9883 24.5582C12.3736 23.3276 10.408 20.2863 5.44789 18.6305C5.01142 18.4846 4.52346 18.523 4.10879 18.7355C3.6903 18.9495 3.37098 19.3272 3.23266 19.7713C2.70539 21.4603 1.67738 25.7864 3.51723 29.4689C4.13194 30.6993 6.09748 33.7404 11.0579 35.3966C11.0918 35.4078 11.1259 35.417 11.1602 35.4261C10.745 37.4252 10.5304 39.476 10.5304 41.5485C10.5304 41.7789 10.5336 42.0092 10.5389 42.2391C9.33875 41.213 6.50317 39.3805 1.68621 39.5283C1.22659 39.5424 0.781902 39.7472 0.465941 40.0898C0.147543 40.4355 -0.021559 40.9003 0.00220665 41.3648C0.0914801 43.1318 0.623008 47.5466 3.6222 50.3657C4.58928 51.2743 7.31699 53.3286 12.1998 53.3286C12.3794 53.3286 12.5622 53.3259 12.7474 53.3203C12.8081 53.3184 12.8687 53.3126 12.9286 53.3043C13.5622 54.7942 14.3155 56.2315 15.184 57.5987C13.6455 57.3533 10.2402 57.2605 6.1831 59.9541C5.79995 60.2083 5.52985 60.6166 5.44195 61.0744C5.35343 61.5359 5.45474 62.02 5.71997 62.4028C6.72742 63.8574 9.50663 67.3287 13.5408 68.1429C13.9513 68.2257 14.5699 68.3129 15.3556 68.3129C17.1526 68.3127 19.8215 67.8558 22.8527 65.8432C22.8894 65.8188 22.9242 65.7917 22.9589 65.7648C25.9945 67.9089 29.4202 69.4551 33.0375 70.2741C33.1332 70.2958 33.2285 70.306 33.3225 70.306C33.9098 70.306 34.4403 69.9009 34.5754 69.304C34.7326 68.6115 34.2981 67.923 33.6056 67.7661ZM20.2619 14.5008C21.3777 12.3444 23.724 11.1114 25.1322 10.5377C25.466 12.0493 25.8033 14.7477 24.6779 16.9227C23.5622 19.0792 21.2159 20.3121 19.8077 20.8858C19.4739 19.3743 19.1366 16.676 20.2619 14.5008ZM11.0502 32.6498C9.5665 32.0389 7.00088 30.6885 5.81747 28.3197C4.62203 25.927 5.06794 22.9697 5.45581 21.3774C6.93933 21.9883 9.50495 23.3386 10.6884 25.7075V25.7077C11.8835 28.1001 11.4376 31.0578 11.0502 32.6498ZM5.38329 48.4919C3.43436 46.6599 2.83016 43.7311 2.64324 42.1027C4.24681 42.1631 7.12093 42.543 9.05036 44.3564C10.2252 45.4604 10.9091 46.962 11.3099 48.3385C11.3882 48.6755 11.4732 49.0108 11.563 49.3447C11.673 49.8662 11.7446 50.3453 11.7904 50.7455C10.1868 50.6852 7.31257 50.3051 5.38329 48.4919ZM14.0503 65.6223C11.4287 65.0932 9.37119 62.9225 8.35384 61.6376C9.74825 60.8436 12.3906 59.6509 14.9863 60.1751C16.4445 60.4694 17.7276 61.2721 18.755 62.1474C19.1789 62.589 19.6157 63.0163 20.065 63.4287C20.2994 63.6897 20.5075 63.9383 20.683 64.1597C19.2886 64.9538 16.6468 66.1459 14.0503 65.6223Z" fill="#FF3116"/>
<path d="M77.5336 40.0899C77.2176 39.7473 76.7731 39.5429 76.3139 39.5287C71.4974 39.3811 68.6611 41.2139 67.4609 42.2398C67.4663 42.0098 67.4695 41.7796 67.4695 41.5489C67.4695 39.4763 67.2547 37.4256 66.8397 35.4266C66.874 35.4174 66.9081 35.4084 66.9417 35.397C71.9027 33.7407 73.868 30.6998 74.4828 29.4693C76.322 25.7875 75.2944 21.4612 74.7672 19.7716C74.6285 19.3272 74.3088 18.9497 73.8909 18.7359C73.4764 18.5239 72.9886 18.4855 72.5523 18.631C67.5919 20.2868 65.6263 23.3279 65.0114 24.5587C64.5052 25.5717 64.2169 26.6334 64.0749 27.6756C63.0812 25.7734 61.8787 23.9773 60.4824 22.323C60.9667 20.6123 61.7566 16.6717 60.0218 13.3192C58.2202 9.83752 54.37 8.2827 52.7983 7.77601C52.3658 7.63631 51.8842 7.67942 51.4773 7.89423C51.068 8.11025 50.7586 8.48654 50.6286 8.9259C50.1533 10.5292 49.242 14.6327 51.0384 18.1048C52.84 21.5863 56.6902 23.1409 58.262 23.6479C58.2653 23.649 58.2688 23.6496 58.2723 23.6508C58.3138 23.7262 58.3636 23.7988 58.4216 23.8669C62.5983 28.7585 64.8985 35.0381 64.8985 41.5489C64.8985 43.5961 64.6669 45.6273 64.2206 47.6026C64.0964 48.0268 63.995 48.4405 63.9125 48.8357C62.9487 52.3399 61.297 55.6345 59.0375 58.4826C58.5543 59.0916 58.0458 59.6768 57.5147 60.2374C56.9686 60.7072 56.4859 61.1914 56.0706 61.6507C52.7534 64.6595 48.7234 66.7862 44.3946 67.7664C43.702 67.9233 43.2678 68.6117 43.4246 69.3043C43.5597 69.9012 44.0899 70.3063 44.6775 70.3063C44.7716 70.3063 44.8668 70.2958 44.9625 70.2744C48.5798 69.4553 52.0055 67.909 55.0411 65.7651C55.0755 65.7922 55.1101 65.819 55.1468 65.8434C58.1791 67.8566 60.8472 68.3133 62.6443 68.3133C63.4295 68.3133 64.0486 68.226 64.4587 68.1433C68.4938 67.329 71.2724 63.8579 72.2799 62.4033C72.5451 62.0204 72.6464 61.5364 72.5579 61.0748C72.47 60.6171 72.1999 60.2088 71.8172 59.955C67.7601 57.2612 64.3543 57.354 62.816 57.5994C63.6845 56.2323 64.4378 54.7946 65.0714 53.3049C65.1314 53.3132 65.1918 53.3189 65.2526 53.3209C65.4383 53.3265 65.6206 53.3292 65.8002 53.3292C70.6828 53.3292 73.4112 51.2749 74.3778 50.3663C77.3773 47.5472 77.9088 43.1326 77.9981 41.3652C78.0212 40.9001 77.8521 40.4352 77.5336 40.0899ZM58.1922 20.8861C56.7838 20.3125 54.4377 19.0796 53.3221 16.9232C52.1967 14.7483 52.5337 12.05 52.8678 10.5382C54.2762 11.1117 56.6221 12.3446 57.7379 14.5011C58.8631 16.6759 58.5263 19.3742 58.1922 20.8861ZM63.0136 60.1756C65.6092 59.652 68.2516 60.8439 69.6461 61.6381C68.6293 62.9229 66.5715 65.0935 63.9496 65.6228C61.355 66.1459 58.7115 64.9544 57.3171 64.1603C57.4922 63.9391 57.7001 63.6907 57.9343 63.4299C58.3841 63.0168 58.8215 62.5887 59.2463 62.1464C60.2732 61.2717 61.5558 60.4697 63.0136 60.1756ZM67.3116 25.7079C68.4952 23.339 71.0607 21.9888 72.5443 21.3779C72.9317 22.9703 73.3777 25.9278 72.1827 28.3202C70.9993 30.6887 68.4338 32.039 66.95 32.6502C66.5621 31.0582 66.1162 28.1008 67.3116 25.7079ZM72.6165 48.4923C70.6871 50.3058 67.813 50.6856 66.2094 50.7459C66.2554 50.3456 66.327 49.8663 66.4372 49.3444C66.5266 49.0113 66.6115 48.6767 66.6898 48.3403C67.0904 46.9637 67.7746 45.4613 68.9499 44.3569C70.8794 42.5434 73.7533 42.1637 75.3571 42.1033C75.1698 43.7313 74.5656 46.6604 72.6165 48.4923Z" fill="#FF3116"/>
</g>
<defs>
<clipPath id="clip0_542_6470">
<rect width="78" height="78" fill="white"/>
</clipPath>
</defs>
</svg>
