<svg width="78" height="78" viewBox="0 0 78 78" fill="none" xmlns="http://www.w3.org/2000/svg">
<path d="M75.5054 9.46484H2.49463C1.11912 9.46484 0 10.584 0 11.9595V66.0415C0 67.417 1.11912 68.5361 2.49463 68.5361H75.5054C76.8809 68.5361 78 67.417 78 66.0415V11.9595C78 10.584 76.8809 9.46484 75.5054 9.46484ZM9.46436 66.251H2.49463C2.37915 66.251 2.28516 66.157 2.28516 66.0415V59.0718H9.46436V66.251ZM9.46436 56.7866H2.28516V49.6074H9.46436V56.7866ZM9.46436 47.3223H2.28516V40.1431H9.46436V47.3223ZM9.46436 37.8579H2.28516V30.6787H9.46436V37.8579ZM9.46436 28.3936H2.28516V21.2144H9.46436V28.3936ZM9.46436 18.9292H2.28516V11.9595C2.28516 11.844 2.37915 11.75 2.49463 11.75H9.46436V18.9292ZM66.2505 66.251H11.7495V11.75H66.2505V66.251ZM75.7148 66.0415C75.7148 66.157 75.6208 66.251 75.5054 66.251H68.5356V59.0718H75.7148V66.0415ZM75.7148 56.7866H68.5356V49.6074H75.7148V56.7866ZM75.7148 47.3223H68.5356V40.1431H75.7148V47.3223ZM75.7148 37.8579H68.5356V30.6787H75.7148V37.8579ZM75.7148 28.3936H68.5356V21.2144H75.7148V28.3936ZM75.7148 18.9292H68.5356V11.75H75.5054C75.6208 11.75 75.7148 11.844 75.7148 11.9595V18.9292Z" fill="#B3DE4F"/>
<path d="M53.6213 36.8121L51.7195 35.7661C51.1665 35.462 50.4718 35.6639 50.1677 36.2167C49.8636 36.7696 50.0652 37.4644 50.6182 37.7685L52.5201 38.8145C52.5921 38.8541 52.6285 38.916 52.6285 38.9981C52.6285 39.0803 52.5921 39.142 52.5201 39.1816L29.6366 51.7675C29.5672 51.8058 29.4973 51.8045 29.4292 51.7643C29.3609 51.724 29.3263 51.6633 29.3263 51.5839V26.4122C29.3263 26.3328 29.3609 26.2723 29.4292 26.2318C29.4973 26.1914 29.5672 26.1904 29.6366 26.2286L45.9067 35.1771C46.4597 35.4812 47.1544 35.2795 47.4584 34.7265C47.7625 34.1736 47.561 33.4788 47.0079 33.1747L30.7379 24.2262C29.9572 23.7968 29.0331 23.8112 28.266 24.2648C27.499 24.7183 27.041 25.521 27.041 26.412V51.5838C27.041 52.4749 27.499 53.2776 28.266 53.7311C28.661 53.9646 29.0977 54.0818 29.535 54.0818C29.9468 54.0818 30.3594 53.9779 30.7379 53.7696L53.6213 41.1837C54.4186 40.7453 54.9137 39.9077 54.9137 38.9978C54.9137 38.0883 54.4186 37.2507 53.6213 36.8121Z" fill="#B3DE4F"/>
</svg>
