<svg width="40" height="40" viewBox="0 0 40 40" fill="none" xmlns="http://www.w3.org/2000/svg">
<g clip-path="url(#clip0_542_7228)">
<path d="M19.998 7.11328C12.8917 7.11328 7.11035 12.8947 7.11035 20.0009C7.11035 27.1071 12.8917 32.8885 19.998 32.8885C27.1042 32.8885 32.8856 27.1071 32.8856 20.0009C32.8856 12.8947 27.1043 7.11328 19.998 7.11328ZM19.998 30.5453C14.1838 30.5453 9.45355 25.8151 9.45355 20.0009C9.45355 14.1867 14.1838 9.45648 19.998 9.45648C25.8121 9.45648 30.5424 14.1867 30.5424 20.0009C30.5424 25.8151 25.8122 30.5453 19.998 30.5453Z" fill="#3B8EFA"/>
<path d="M25.028 15.6557L18.8268 21.8568L14.9688 17.9989C14.5113 17.5413 13.7695 17.5413 13.3119 17.9989C12.8544 18.4564 12.8544 19.1982 13.3119 19.6557L17.9983 24.3421C18.2271 24.5709 18.5269 24.6853 18.8267 24.6853C19.1265 24.6853 19.4264 24.571 19.6551 24.3421L26.6847 17.3125C27.1423 16.855 27.1423 16.1132 26.6847 15.6557C26.2273 15.1981 25.4855 15.1981 25.028 15.6557Z" fill="#3B8EFA"/>
<path d="M38.3223 11.7853C38.3184 11.7829 34.2303 9.33582 34.2303 9.33582L33.3126 5.5353C32.9055 3.8489 31.3548 2.72175 29.6248 2.85593L24.9662 3.21647C24.9662 3.21647 22.2827 0.848122 22.2774 0.843669C20.9568 -0.281223 19.0397 -0.281223 17.719 0.843669C17.7138 0.848122 15.0302 3.21647 15.0302 3.21647L10.3716 2.85593C8.65554 2.72268 7.11676 3.83016 6.6942 5.49328L5.41669 9.56389C5.41669 9.56389 1.68264 11.7823 1.67772 11.7853C0.199707 12.6937 -0.392732 14.5169 0.269144 16.1206L1.86315 19.9834L0.269144 23.8461C-0.392732 25.4498 0.199707 27.273 1.6778 28.1814C1.68233 28.1842 5.76247 30.6154 5.76247 30.6154L6.68397 34.4314C7.06919 36.0271 8.47808 37.1217 10.0938 37.1216C10.3409 37.1216 10.0633 37.1309 14.9819 36.754C14.9819 36.754 17.7147 39.1522 17.7191 39.1559C18.3794 39.7183 19.1889 39.9996 19.9983 39.9996C20.8078 39.9996 21.6173 39.7183 22.2776 39.1559C22.282 39.1521 25.0148 36.754 25.0148 36.754L29.6249 37.1108C31.3544 37.2444 32.9056 36.1178 33.3127 34.4314L34.2304 30.6308C39.2329 27.6364 38.1722 28.274 38.3224 28.1813C39.8003 27.2729 40.3928 25.4497 39.7309 23.846L38.1369 19.9832L39.7309 16.1205C40.3927 14.5169 39.8003 12.6938 38.3223 11.7853ZM35.7864 20.4303L37.5649 24.74C37.7848 25.2729 37.5893 25.8785 37.1001 26.1823L32.6052 28.873C32.3354 29.0344 32.1418 29.2975 32.068 29.6032L31.0349 33.8816C30.8992 34.4437 30.3831 34.8191 29.8057 34.7747L24.7034 34.3798C24.3892 34.3555 24.0775 34.4591 23.8403 34.6673L20.7525 37.3769C20.3143 37.7457 19.6822 37.7457 19.244 37.3767L16.1564 34.6673C15.9191 34.4591 15.6073 34.3553 15.2933 34.3798L10.191 34.7747C9.61406 34.8192 9.09747 34.4437 8.96179 33.8815L7.92461 29.5862C7.85065 29.2798 7.65624 29.0161 7.38544 28.8548L2.89907 26.1816C2.41059 25.8776 2.21548 25.2725 2.43528 24.7399L4.21377 20.4303C4.33194 20.144 4.33194 19.8227 4.21377 19.5364L2.43504 15.2267C2.21541 14.6945 2.41028 14.0897 2.89822 13.7856L6.99882 11.3495C7.24688 11.2021 7.43184 10.9684 7.51823 10.6931C9.02943 5.87491 8.94414 6.15774 8.96164 6.08518C9.09731 5.52312 9.6125 5.14711 10.1909 5.1921L15.3436 5.59092C15.6598 5.61529 15.9717 5.51078 16.2092 5.30122L19.2451 2.62185C19.6827 2.25428 20.3135 2.25428 20.7512 2.62169L23.7872 5.30122C24.0247 5.51093 24.3375 5.61529 24.6529 5.59092L29.8056 5.1921C30.3819 5.14758 30.8992 5.52304 31.0348 6.08525L32.0679 10.3636C32.1418 10.6693 32.3353 10.9324 32.6051 11.0939L37.1 13.7845C37.5892 14.0883 37.7848 14.6939 37.5648 15.2267L35.7863 19.5364C35.6682 19.8227 35.6682 20.1441 35.7864 20.4303Z" fill="#3B8EFA"/>
</g>
<defs>
<clipPath id="clip0_542_7228">
<rect width="40" height="40" fill="white"/>
</clipPath>
</defs>
</svg>
