<svg width="68" height="68" viewBox="0 0 68 68" fill="none" xmlns="http://www.w3.org/2000/svg">
<g clip-path="url(#clip0_542_5228)">
<path d="M23.5382 31.3845H14.3843C13.2945 31.3845 12.368 31.0032 11.6051 30.2403C10.8426 29.4774 10.4609 28.5512 10.4609 27.4611V26.154C10.4609 23.266 11.4827 20.8007 13.5262 18.7572C15.5696 16.7144 18.0354 15.6925 20.9231 15.6925H23.5382C24.2465 15.6925 24.8592 15.4336 25.3771 14.9162C25.8947 14.3985 26.1534 13.7857 26.1534 13.0773V7.84609C26.1534 7.13787 25.8945 6.52454 25.3771 6.00683C24.8594 5.48983 24.2466 5.23047 23.5382 5.23047H20.9231C18.0895 5.23047 15.3861 5.78268 12.8113 6.88552C10.2367 7.98908 8.00988 9.48082 6.12982 11.3609C4.24991 13.2401 2.75861 15.4671 1.65519 18.0419C0.551778 20.6165 0 23.3205 0 26.1539V54.9224C0 57.103 0.76247 58.9546 2.28813 60.4809C3.81393 62.0062 5.66693 62.7688 7.84627 62.7688H23.5393C25.7185 62.7688 27.5709 62.0062 29.0968 60.4809C30.6222 58.9546 31.3851 57.103 31.3851 54.9224V39.2308C31.3851 37.0506 30.6222 35.199 29.0958 33.6727C27.5706 32.1474 25.7175 31.3845 23.5382 31.3845Z" fill="#B3DE4F"/>
<path d="M65.7137 33.6727C64.1885 32.1474 62.3359 31.3845 60.1562 31.3845H51.0024C49.9131 31.3845 48.9858 31.0032 48.2241 30.2403C47.461 29.4774 47.0799 28.5512 47.0799 27.4611V26.154C47.0799 23.266 48.1018 20.8007 50.1443 18.7572C52.1869 16.7144 54.6525 15.6925 57.5417 15.6925H60.1563C60.8647 15.6925 61.4778 15.4336 61.9953 14.9162C62.5124 14.3985 62.7722 13.7857 62.7722 13.0773V7.84609C62.7722 7.13787 62.5126 6.52454 61.9953 6.00683C61.478 5.48983 60.8648 5.23047 60.1563 5.23047H57.5417C54.7065 5.23047 52.0037 5.78268 49.4282 6.88552C46.8541 7.98908 44.6279 9.48082 42.7479 11.3609C40.8678 13.2401 39.3758 15.4671 38.2728 18.0419C37.1697 20.6165 36.6172 23.3205 36.6172 26.1539V54.9224C36.6172 57.103 37.3804 58.9546 38.9056 60.4809C40.431 62.0062 42.2835 62.7688 44.4632 62.7688H60.1553C62.3351 62.7688 64.1875 62.0062 65.7127 60.4809C67.2391 58.9546 68.0007 57.103 68.0007 54.9224V39.2308C68.0009 37.0505 67.2391 35.199 65.7137 33.6727Z" fill="#B3DE4F"/>
</g>
<defs>
<clipPath id="clip0_542_5228">
<rect width="68" height="68" fill="white"/>
</clipPath>
</defs>
</svg>
