<svg width="91" height="91" viewBox="0 0 91 91" fill="none" xmlns="http://www.w3.org/2000/svg">
<path d="M45.5001 12.134C46.3377 12.134 47.0168 11.4548 47.0168 10.6172V1.51675C47.0168 0.679123 46.3377 0 45.5001 0C44.6625 0 43.9833 0.679123 43.9833 1.51675V10.6172C43.9833 11.4548 44.6623 12.134 45.5001 12.134Z" fill="#B3DE4F"/>
<path d="M22.9525 7.96002L27.5028 15.8471C27.9168 16.5753 28.8428 16.8299 29.571 16.4159C30.2993 16.0018 30.5539 15.0758 30.1398 14.3476C30.1366 14.3417 30.1332 14.336 30.1298 14.3302L25.5795 6.44308C25.1655 5.71486 24.2395 5.46023 23.5113 5.87431C22.783 6.28838 22.5284 7.21435 22.9425 7.94258C22.9457 7.94845 22.9491 7.95433 22.9525 7.96002Z" fill="#B3DE4F"/>
<path d="M7.9618 24.0638L15.8489 28.614C16.5771 29.0281 17.5031 28.7735 17.9171 28.0453C18.3272 27.3239 18.0815 26.4068 17.3656 25.987L9.47854 21.4368C8.75032 21.0227 7.82434 21.2774 7.41027 22.0056C6.99999 22.727 7.24571 23.6441 7.9618 24.0638Z" fill="#B3DE4F"/>
<path d="M13.6484 43.9855C13.6484 43.1479 12.9693 42.4688 12.1317 42.4688H3.03121C2.19359 42.4688 1.51447 43.1479 1.51447 43.9855C1.51447 44.8231 2.19359 45.5022 3.03121 45.5022H12.1317C12.9693 45.5022 13.6484 44.8231 13.6484 43.9855Z" fill="#B3DE4F"/>
<path d="M15.8605 59.3468C15.8546 59.3502 15.8488 59.3536 15.8429 59.357L7.9558 63.9073C7.22757 64.3211 6.97276 65.2471 7.38664 65.9753C7.80052 66.7036 8.72649 66.9584 9.45472 66.5445C9.4606 66.5411 9.46648 66.5377 9.47235 66.5343L17.3594 61.984C18.0877 61.5701 18.3425 60.6442 17.9286 59.9159C17.5147 59.1877 16.5887 58.9329 15.8605 59.3468Z" fill="#B3DE4F"/>
<path d="M83.0384 63.9073L75.1513 59.357C74.4287 58.9333 73.4994 59.1756 73.0756 59.8981C72.6519 60.6207 72.8942 61.5501 73.6167 61.9738C73.6226 61.9772 73.6285 61.9806 73.6343 61.9841L81.5214 66.5343C82.2496 66.9482 83.1756 66.6934 83.5895 65.9651C83.9996 65.2439 83.7541 64.327 83.0384 63.9073Z" fill="#B3DE4F"/>
<path d="M87.9686 42.4688H78.8681C78.0305 42.4688 77.3514 43.1479 77.3514 43.9855C77.3514 44.8231 78.0305 45.5022 78.8681 45.5022H87.9686C88.8062 45.5022 89.4853 44.8231 89.4853 43.9855C89.4853 43.1479 88.8062 42.4688 87.9686 42.4688Z" fill="#B3DE4F"/>
<path d="M74.4006 28.8172C74.6667 28.8172 74.9284 28.747 75.1589 28.6139L83.046 24.0637C83.7687 23.6402 84.011 22.7108 83.5875 21.9882C83.1677 21.2723 82.2507 21.0266 81.5293 21.4367L73.6422 25.9869C72.9168 26.4057 72.6682 27.3334 73.087 28.0588C73.358 28.5281 73.8587 28.8172 74.4006 28.8172Z" fill="#B3DE4F"/>
<path d="M61.4255 16.4023C62.1509 16.8211 63.0786 16.5725 63.4974 15.8471L68.0476 7.96006C68.4714 7.23752 68.2291 6.30813 67.5065 5.88439C66.784 5.46065 65.8546 5.70295 65.4309 6.42549C65.4274 6.43137 65.424 6.43724 65.4206 6.44312L60.8704 14.3302C60.4514 15.0558 60.6999 15.9834 61.4255 16.4023Z" fill="#B3DE4F"/>
<path d="M45.5001 21.2344C32.9409 21.2486 22.7631 31.4263 22.7489 43.9856C22.7489 44.8232 23.428 45.5023 24.2656 45.5023C25.1033 45.5023 25.7824 44.8232 25.7824 43.9856C25.7949 33.101 34.6155 24.2804 45.5001 24.2679C46.3377 24.2679 47.0168 23.5887 47.0168 22.7511C47.0168 21.9135 46.3377 21.2344 45.5001 21.2344Z" fill="#B3DE4F"/>
<path d="M73.2561 51.7115V51.7039C73.3047 51.5522 73.3486 51.3884 73.3866 51.2398C73.4412 51.0305 73.4867 50.8196 73.5382 50.6088C73.5898 50.398 73.6383 50.1872 73.6672 50.0188C77.03 34.4623 67.1452 19.1251 51.5887 15.7621C36.0322 12.3991 20.695 22.2842 17.332 37.8407C16.8956 39.8596 16.6775 41.9196 16.6815 43.9852C16.6815 44.6601 16.7103 45.3305 16.7573 45.9964C16.7816 46.365 16.818 46.7396 16.8635 47.1324C16.9485 47.906 17.0577 48.6734 17.2048 49.4333C17.2169 49.4955 17.2215 49.5592 17.2382 49.6214C17.3049 49.9687 17.3898 50.3055 17.4702 50.6422C17.5172 50.8378 17.5627 51.0335 17.6128 51.2276C17.6355 51.3095 17.6477 51.3793 17.6735 51.4734C17.7341 51.6993 17.8054 51.9132 17.8722 52.1347C17.9434 52.3804 18.0117 52.6261 18.0906 52.8688L18.0997 52.8976C18.2362 53.3389 18.3909 53.7682 18.5774 54.246C18.6123 54.3385 18.6487 54.4295 18.6851 54.5205C18.7185 54.6335 18.7623 54.7431 18.8156 54.8481L18.8232 54.8663C18.9248 55.1363 19.0431 55.4048 19.1614 55.6565L19.1811 55.6945C19.2569 55.8658 19.3328 56.0357 19.4147 56.2071C19.4526 56.292 19.489 56.3861 19.5269 56.4634C19.9332 57.3196 20.386 58.1531 20.8829 58.96L21.024 59.1845C21.115 59.3362 21.2075 59.4878 21.3 59.6168L21.4866 59.8943C21.5776 60.0278 21.6716 60.1628 21.7641 60.2963C21.8309 60.3933 21.893 60.4904 21.9613 60.586C21.9947 60.6406 22.0265 60.6936 22.069 60.7513C22.1008 60.7938 22.1357 60.8362 22.1691 60.8787C22.2283 60.9606 22.2889 61.0304 22.3481 61.1108C22.5968 61.4475 22.8486 61.7812 23.1064 62.1073L23.1246 62.1315C23.1732 62.1892 23.2232 62.2438 23.2763 62.3014C23.5797 62.6685 23.883 63.0325 24.2091 63.3859H24.2167C24.4867 63.6892 24.7733 63.9744 25.0585 64.2626C25.1495 64.352 25.2329 64.4476 25.3239 64.5371C25.3634 64.575 25.3982 64.6175 25.4377 64.6554C25.8472 65.0497 26.2719 65.4274 26.692 65.8005C27.4883 66.4986 28.3282 67.1449 29.2068 67.7359C29.3642 67.9136 29.5611 68.0518 29.7816 68.1394L30.3747 72.5561C30.3533 72.6371 30.339 72.7199 30.3322 72.8033C30.3364 73.0365 30.395 73.2658 30.5036 73.4722L31.6199 81.7719C31.6383 81.9148 31.6776 82.0544 31.7367 82.1859C32.0577 82.9115 32.4445 83.606 32.8925 84.2608V84.2715L32.9046 84.2851C37.5656 91.2352 46.9783 93.0911 53.9284 88.4302C55.5667 87.3315 56.9748 85.9234 58.0735 84.2851L58.0856 84.2715L58.0932 84.2608C58.5412 83.606 58.928 82.9115 59.249 82.1859C59.3081 82.0544 59.3474 81.9148 59.3658 81.7719L61.1995 68.1378C61.3057 68.1024 61.4073 68.055 61.5029 67.9968C67.2259 64.1617 71.3869 58.4047 73.2334 51.7676C73.247 51.7494 73.2561 51.7312 73.2561 51.7115ZM37.4882 84.9373H53.5111C48.9359 88.9819 42.0633 88.9819 37.4882 84.9373ZM56.402 81.1455C56.2822 81.4033 56.1503 81.6566 56.0092 81.9038H34.99C34.8489 81.6581 34.7169 81.4048 34.5971 81.1455L33.6795 74.3201H57.3195L56.402 81.1455ZM57.7246 71.3048C57.6928 71.3033 57.6655 71.2866 57.6336 71.2866H33.2717L32.8637 68.2531H58.1357L57.7246 71.3048ZM42.4662 65.2196V51.0168L44.6033 52.5563C45.1328 52.9378 45.8468 52.9378 46.3764 52.5563L48.5332 51.0032V65.2196H42.4662ZM71.2267 45.6536C71.1979 46.1208 71.1554 46.5727 71.0993 47.0278V47.0627C71.0807 47.1455 71.068 47.2297 71.0614 47.3144V47.3448C71.0523 47.3903 71.0462 47.4358 71.0402 47.4843C71.0341 47.5328 71.0311 47.5602 71.0265 47.6011C71.0265 47.6451 71.0144 47.6876 71.0083 47.7315C70.9749 47.9666 70.9401 48.2002 70.8991 48.4338C70.8794 48.54 70.8642 48.6386 70.8384 48.7584C70.8142 48.9192 70.7762 49.0921 70.7201 49.3499V49.3772C70.6822 49.5592 70.6428 49.7412 70.6003 49.9217C70.5851 49.9824 70.5745 50.034 70.5563 50.1022C70.5053 50.3515 70.4414 50.598 70.3652 50.8409C70.3364 50.9486 70.3045 51.0563 70.2742 51.1639C70.1999 51.4385 70.1225 51.7069 70.0194 51.9997C69.895 52.388 69.7722 52.7762 69.6205 53.1478L69.5613 53.2995C69.4904 53.4967 69.4095 53.6901 69.3187 53.8789C69.2855 53.9443 69.2576 54.0124 69.2352 54.0822L69.2049 54.1504C69.0699 54.4902 68.9198 54.8147 68.7256 55.2121C68.6164 55.4578 68.4951 55.6899 68.3737 55.922L68.1902 56.2845C66.244 59.8714 63.4718 62.9436 60.1029 65.2469C60.024 65.231 59.9438 65.2219 59.8633 65.2196H51.5667V52.4699L51.688 52.5563C52.2168 52.9363 52.9293 52.9363 53.458 52.5563L57.0012 50.0112C57.6949 49.5416 57.8767 48.5987 57.4071 47.905C56.9375 47.2113 55.9946 47.0295 55.3009 47.4991C55.2778 47.5148 55.255 47.5311 55.2326 47.548L52.5723 49.4576L49.9134 47.548C49.3843 47.1673 48.671 47.1673 48.1418 47.548L45.4906 49.4561L42.8393 47.548C42.3098 47.1666 41.5958 47.1666 41.0662 47.548L38.4165 49.4561L35.7698 47.548C35.0901 47.0579 34.1417 47.2119 33.6516 47.8916C33.1615 48.5713 33.3155 49.5196 33.9952 50.0097L37.5292 52.5563C38.0587 52.9378 38.7727 52.9378 39.3023 52.5563L39.4327 52.4623V65.2196H31.1361C31.0716 65.2204 31.0074 65.2249 30.9435 65.2333C29.3058 64.112 27.8019 62.8067 26.4615 61.3428C26.1718 61.0273 25.8912 60.6936 25.6091 60.3524C25.5575 60.2902 25.5014 60.2295 25.4498 60.1658C25.1935 59.8625 24.9584 59.5409 24.7248 59.2163C24.6353 59.095 24.5398 58.9782 24.4533 58.8554V58.8463C24.4412 58.8281 24.4306 58.8114 24.4184 58.7962L24.3684 58.7219C24.3289 58.6703 24.2971 58.6172 24.2592 58.5702C23.9058 58.0575 23.5766 57.5297 23.2612 56.9943C22.9578 56.4847 22.6833 55.9735 22.4285 55.4533C22.3268 55.2516 22.2222 55.0514 22.1251 54.8466C22.0963 54.7753 22.0614 54.6949 22.0432 54.6509L21.9689 54.4993L21.9507 54.4629V54.4553C21.5804 53.6296 21.2549 52.7846 20.9754 51.9238C20.9481 51.8419 20.9223 51.7555 20.895 51.672C20.757 51.2307 20.6281 50.7848 20.5128 50.3328C20.5128 50.3085 20.4992 50.2857 20.4946 50.2615C20.4855 50.2008 20.4734 50.1405 20.4582 50.081C20.4309 49.9778 20.4112 49.8702 20.3869 49.767C20.3141 49.4515 20.2352 49.1376 20.1776 48.819C20.1776 48.7842 20.17 48.7493 20.164 48.7144C20.0836 48.3003 20.0123 47.8711 19.9607 47.4418C19.9596 47.3476 19.9474 47.254 19.9243 47.1628C19.9243 47.1309 19.9137 47.0793 19.9046 47.0263C19.8485 46.5712 19.8075 46.1283 19.7772 45.6384C19.7287 45.0879 19.715 44.5358 19.715 43.9852C19.7309 29.7513 31.2658 18.2164 45.4997 18.2005C59.7336 18.2164 71.2684 29.7513 71.2844 43.9852C71.2844 44.5358 71.2707 45.0879 71.2267 45.6536Z" fill="#B3DE4F"/>
</svg>
