<svg width="89" height="91" viewBox="0 0 89 91" fill="none" xmlns="http://www.w3.org/2000/svg">
<path d="M44.5001 12.134C45.3378 12.134 46.0169 11.4548 46.0169 10.6172V1.51675C46.0169 0.679123 45.3378 0 44.5001 0C43.6625 0 42.9834 0.679123 42.9834 1.51675V10.6172C42.9834 11.4548 43.6623 12.134 44.5001 12.134Z" fill="#EA4D23"/>
<path d="M21.9527 7.96002L26.5029 15.8471C26.917 16.5753 27.843 16.8299 28.5712 16.4159C29.2994 16.0018 29.5541 15.0758 29.14 14.3476C29.1368 14.3417 29.1334 14.336 29.13 14.3302L24.5797 6.44308C24.1656 5.71486 23.2397 5.46023 22.5114 5.87431C21.7832 6.28838 21.5286 7.21435 21.9427 7.94258C21.9459 7.94845 21.9493 7.95433 21.9527 7.96002Z" fill="#EA4D23"/>
<path d="M6.96198 24.0638L14.8491 28.614C15.5773 29.0281 16.5033 28.7735 16.9173 28.0453C17.3274 27.3239 17.0817 26.4068 16.3658 25.987L8.47873 21.4368C7.7505 21.0227 6.82453 21.2774 6.41046 22.0056C6.00018 22.727 6.24589 23.6441 6.96198 24.0638Z" fill="#EA4D23"/>
<path d="M12.6486 43.9855C12.6486 43.1479 11.9695 42.4688 11.1319 42.4688H2.03139C1.19377 42.4688 0.514648 43.1479 0.514648 43.9855C0.514648 44.8231 1.19377 45.5022 2.03139 45.5022H11.1319C11.9695 45.5022 12.6486 44.8231 12.6486 43.9855Z" fill="#EA4D23"/>
<path d="M14.8607 59.3468C14.8548 59.3502 14.8489 59.3536 14.8431 59.357L6.95598 63.9073C6.22775 64.3211 5.97294 65.2471 6.38682 65.9753C6.8007 66.7036 7.72668 66.9584 8.4549 66.5445C8.46078 66.5411 8.46666 66.5377 8.47254 66.5343L16.3596 61.984C17.0878 61.5701 17.3427 60.6442 16.9288 59.9159C16.5149 59.1877 15.5889 58.9329 14.8607 59.3468Z" fill="#EA4D23"/>
<path d="M82.0385 63.9073L74.1515 59.357C73.4289 58.9333 72.4995 59.1756 72.0758 59.8981C71.6521 60.6207 71.8944 61.5501 72.6169 61.9738C72.6228 61.9772 72.6286 61.9806 72.6345 61.9841L80.5216 66.5343C81.2498 66.9482 82.1758 66.6934 82.5897 65.9651C82.9998 65.2439 82.7543 64.327 82.0385 63.9073Z" fill="#EA4D23"/>
<path d="M86.9688 42.4688H77.8683C77.0307 42.4688 76.3516 43.1479 76.3516 43.9855C76.3516 44.8231 77.0307 45.5022 77.8683 45.5022H86.9688C87.8064 45.5022 88.4855 44.8231 88.4855 43.9855C88.4855 43.1479 87.8064 42.4688 86.9688 42.4688Z" fill="#EA4D23"/>
<path d="M73.4007 28.8172C73.6669 28.8172 73.9286 28.747 74.1591 28.6139L82.0462 24.0637C82.7689 23.6402 83.0112 22.7108 82.5877 21.9882C82.1679 21.2723 81.2508 21.0266 80.5294 21.4367L72.6424 25.9869C71.917 26.4057 71.6684 27.3334 72.0872 28.0588C72.3582 28.5281 72.8589 28.8172 73.4007 28.8172Z" fill="#EA4D23"/>
<path d="M60.4257 16.4023C61.1511 16.8211 62.0787 16.5725 62.4976 15.8471L67.0478 7.96006C67.4715 7.23752 67.2292 6.30813 66.5067 5.88439C65.7842 5.46065 64.8548 5.70295 64.431 6.42549C64.4276 6.43137 64.4242 6.43724 64.4208 6.44312L59.8706 14.3302C59.4516 15.0558 59.7001 15.9834 60.4257 16.4023Z" fill="#EA4D23"/>
<path d="M44.5002 21.2344C31.941 21.2486 21.7632 31.4263 21.749 43.9856C21.749 44.8232 22.4281 45.5023 23.2658 45.5023C24.1034 45.5023 24.7825 44.8232 24.7825 43.9856C24.795 33.101 33.6157 24.2804 44.5002 24.2679C45.3378 24.2679 46.017 23.5887 46.017 22.7511C46.017 21.9135 45.3378 21.2344 44.5002 21.2344Z" fill="#EA4D23"/>
<path d="M72.2563 51.7115V51.7039C72.3048 51.5522 72.3488 51.3884 72.3867 51.2398C72.4414 51.0305 72.4869 50.8196 72.5384 50.6088C72.59 50.398 72.6385 50.1872 72.6674 50.0188C76.0302 34.4623 66.1453 19.1251 50.5888 15.7621C35.0323 12.3991 19.6952 22.2842 16.3322 37.8407C15.8957 39.8596 15.6777 41.9196 15.6817 43.9852C15.6817 44.6601 15.7105 45.3305 15.7575 45.9964C15.7818 46.365 15.8182 46.7396 15.8637 47.1324C15.9486 47.906 16.0578 48.6734 16.205 49.4333C16.2171 49.4955 16.2217 49.5592 16.2383 49.6214C16.3051 49.9687 16.39 50.3055 16.4704 50.6422C16.5174 50.8378 16.5629 51.0335 16.613 51.2276C16.6357 51.3095 16.6479 51.3793 16.6736 51.4734C16.7343 51.6993 16.8056 51.9132 16.8723 52.1347C16.9436 52.3804 17.0119 52.6261 17.0908 52.8688L17.0999 52.8976C17.2364 53.3389 17.3911 53.7682 17.5776 54.246C17.6125 54.3385 17.6489 54.4295 17.6853 54.5205C17.7187 54.6335 17.7625 54.7431 17.8158 54.8481L17.8233 54.8663C17.925 55.1363 18.0433 55.4048 18.1616 55.6565L18.1813 55.6945C18.2571 55.8658 18.333 56.0357 18.4149 56.2071C18.4528 56.292 18.4892 56.3861 18.5271 56.4634C18.9334 57.3196 19.3862 58.1531 19.8831 58.96L20.0241 59.1845C20.1151 59.3362 20.2077 59.4878 20.3002 59.6168L20.4867 59.8943C20.5777 60.0278 20.6718 60.1628 20.7643 60.2963C20.831 60.3933 20.8932 60.4904 20.9615 60.586C20.9949 60.6406 21.0267 60.6936 21.0692 60.7513C21.101 60.7938 21.1359 60.8362 21.1693 60.8787C21.2284 60.9606 21.2891 61.0304 21.3483 61.1108C21.597 61.4475 21.8488 61.7812 22.1066 62.1073L22.1248 62.1315C22.1734 62.1892 22.2234 62.2438 22.2765 62.3014C22.5799 62.6685 22.8832 63.0325 23.2093 63.3859H23.2169C23.4869 63.6892 23.7735 63.9744 24.0587 64.2626C24.1497 64.352 24.2331 64.4476 24.3241 64.5371C24.3635 64.575 24.3984 64.6175 24.4379 64.6554C24.8474 65.0497 25.2721 65.4274 25.6922 65.8005C26.4885 66.4986 27.3284 67.1449 28.207 67.7359C28.3643 67.9136 28.5613 68.0518 28.7818 68.1394L29.3749 72.5561C29.3535 72.6371 29.3392 72.7199 29.3324 72.8033C29.3366 73.0365 29.3952 73.2658 29.5038 73.4722L30.6201 81.7719C30.6385 81.9148 30.6778 82.0544 30.7369 82.1859C31.0579 82.9115 31.4447 83.606 31.8927 84.2608V84.2715L31.9048 84.2851C36.5658 91.2352 45.9785 93.0911 52.9286 88.4302C54.5669 87.3315 55.975 85.9234 57.0737 84.2851L57.0858 84.2715L57.0934 84.2608C57.5414 83.606 57.9282 82.9115 58.2492 82.1859C58.3083 82.0544 58.3476 81.9148 58.366 81.7719L60.1997 68.1378C60.3059 68.1024 60.4075 68.055 60.503 67.9968C66.2261 64.1617 70.3871 58.4047 72.2336 51.7676C72.2472 51.7494 72.2563 51.7312 72.2563 51.7115ZM36.4884 84.9373H52.5113C47.936 88.9819 41.0635 88.9819 36.4884 84.9373ZM55.4022 81.1455C55.2824 81.4033 55.1505 81.6566 55.0094 81.9038H33.9901C33.8491 81.6581 33.7171 81.4048 33.5973 81.1455L32.6797 74.3201H56.3197L55.4022 81.1455ZM56.7248 71.3048C56.693 71.3033 56.6657 71.2866 56.6338 71.2866H32.2719L31.8639 68.2531H57.1359L56.7248 71.3048ZM41.4664 65.2196V51.0168L43.6035 52.5563C44.133 52.9378 44.847 52.9378 45.3765 52.5563L47.5334 51.0032V65.2196H41.4664ZM70.2269 45.6536C70.1981 46.1208 70.1556 46.5727 70.0995 47.0278V47.0627C70.0809 47.1455 70.0682 47.2297 70.0616 47.3144V47.3448C70.0525 47.3903 70.0464 47.4358 70.0403 47.4843C70.0343 47.5328 70.0312 47.5602 70.0267 47.6011C70.0267 47.6451 70.0146 47.6876 70.0085 47.7315C69.9751 47.9666 69.9402 48.2002 69.8993 48.4338C69.8796 48.54 69.8644 48.6386 69.8386 48.7584C69.8143 48.9192 69.7764 49.0921 69.7203 49.3499V49.3772C69.6824 49.5592 69.643 49.7412 69.6005 49.9217C69.5853 49.9824 69.5747 50.034 69.5565 50.1022C69.5055 50.3515 69.4416 50.598 69.3654 50.8409C69.3366 50.9486 69.3047 51.0563 69.2744 51.1639C69.2001 51.4385 69.1227 51.7069 69.0196 51.9997C68.8952 52.388 68.7723 52.7762 68.6207 53.1478L68.5615 53.2995C68.4906 53.4967 68.4097 53.6901 68.3188 53.8789C68.2857 53.9443 68.2578 54.0124 68.2354 54.0822L68.2051 54.1504C68.0701 54.4902 67.9199 54.8147 67.7258 55.2121C67.6166 55.4578 67.4952 55.6899 67.3739 55.922L67.1904 56.2845C65.2442 59.8714 62.472 62.9436 59.1031 65.2469C59.0242 65.231 58.944 65.2219 58.8634 65.2196H50.5668V52.4699L50.6882 52.5563C51.217 52.9363 51.9295 52.9363 52.4582 52.5563L56.0013 50.0112C56.6951 49.5416 56.8769 48.5987 56.4073 47.905C55.9376 47.2113 54.9948 47.0295 54.3011 47.4991C54.2779 47.5148 54.2552 47.5311 54.2328 47.548L51.5724 49.4576L48.9136 47.548C48.3844 47.1673 47.6712 47.1673 47.142 47.548L44.4908 49.4561L41.8395 47.548C41.31 47.1666 40.5959 47.1666 40.0664 47.548L37.4167 49.4561L34.7699 47.548C34.0902 47.0579 33.1419 47.2119 32.6518 47.8916C32.1617 48.5713 32.3157 49.5196 32.9953 50.0097L36.5294 52.5563C37.0589 52.9378 37.7729 52.9378 38.3024 52.5563L38.4329 52.4623V65.2196H30.1363C30.0718 65.2204 30.0075 65.2249 29.9437 65.2333C28.3059 64.112 26.8021 62.8067 25.4617 61.3428C25.172 61.0273 24.8914 60.6936 24.6093 60.3524C24.5577 60.2902 24.5016 60.2295 24.45 60.1658C24.1937 59.8625 23.9586 59.5409 23.725 59.2163C23.6355 59.095 23.54 58.9782 23.4535 58.8554V58.8463C23.4414 58.8281 23.4307 58.8114 23.4186 58.7962L23.3686 58.7219C23.3291 58.6703 23.2973 58.6172 23.2594 58.5702C22.906 58.0575 22.5768 57.5297 22.2613 56.9943C21.958 56.4847 21.6835 55.9735 21.4286 55.4533C21.327 55.2516 21.2224 55.0514 21.1253 54.8466C21.0965 54.7753 21.0616 54.6949 21.0434 54.6509L20.9691 54.4993L20.9509 54.4629V54.4553C20.5806 53.6296 20.2551 52.7846 19.9756 51.9238C19.9483 51.8419 19.9225 51.7555 19.8952 51.672C19.7572 51.2307 19.6283 50.7848 19.513 50.3328C19.513 50.3085 19.4993 50.2857 19.4948 50.2615C19.4857 50.2008 19.4736 50.1405 19.4584 50.081C19.4311 49.9778 19.4114 49.8702 19.3871 49.767C19.3143 49.4515 19.2354 49.1376 19.1778 48.819C19.1778 48.7842 19.1702 48.7493 19.1641 48.7144C19.0838 48.3003 19.0125 47.8711 18.9609 47.4418C18.9598 47.3476 18.9476 47.254 18.9245 47.1628C18.9245 47.1309 18.9139 47.0793 18.9048 47.0263C18.8487 46.5712 18.8077 46.1283 18.7774 45.6384C18.7288 45.0879 18.7152 44.5358 18.7152 43.9852C18.7311 29.7513 30.266 18.2164 44.4999 18.2005C58.7338 18.2164 70.2686 29.7513 70.2845 43.9852C70.2845 44.5358 70.2709 45.0879 70.2269 45.6536Z" fill="#EA4D23"/>
</svg>
