<svg width="61" height="61" viewBox="0 0 61 61" fill="none" xmlns="http://www.w3.org/2000/svg">
<path d="M43.2087 17.7904C43.2087 11.7996 43.2087 8.80422 41.3477 6.94311C39.4863 5.08203 36.491 5.08203 30.5003 5.08203H22.8753C16.8846 5.08203 13.8892 5.08203 12.0281 6.94311C10.167 8.80422 10.167 11.7996 10.167 17.7904V43.207C10.167 49.1978 10.167 52.193 12.0281 54.0544C13.8892 55.9153 16.8846 55.9153 22.8753 55.9153H30.5003C36.491 55.9153 39.4863 55.9153 41.3477 54.0544C43.2087 52.193 43.2087 49.1978 43.2087 43.207V40.6653" stroke="white" stroke-width="2" stroke-linecap="round" stroke-linejoin="round"/>
<path d="M31.7712 5.08203H21.6045L22.8753 7.62369H30.5003L31.7712 5.08203Z" stroke="white" stroke-width="2" stroke-linecap="round" stroke-linejoin="round"/>
<path d="M30.5 31.7708C30.5 31.7708 33.9275 33.0588 35.5833 38.125C35.5833 38.125 43.657 25.4167 50.8333 22.875" stroke="white" stroke-width="2" stroke-linecap="round" stroke-linejoin="round"/>
</svg>
