<svg width="62" height="62" viewBox="0 0 62 62" fill="none" xmlns="http://www.w3.org/2000/svg">
<g clip-path="url(#clip0_542_7332)">
<path d="M26.7597 51.3147V43.5903C26.7597 42.3069 26.1904 41.1044 25.1976 40.2911L12.6349 30.0002C11.8389 29.3481 10.8312 29.1218 9.8902 29.3063L9.37931 19.7381C9.27042 17.6989 7.58538 16.1016 5.54339 16.1016C3.42522 16.1016 1.7019 17.8249 1.7019 19.9431V35.5194C1.7019 36.8386 2.16241 38.1273 2.99863 39.1478L4.51192 40.9944C4.69142 41.2135 4.9522 41.3272 5.21503 41.327C5.41767 41.327 5.62139 41.2597 5.79036 41.1213C6.17843 40.8033 6.23524 40.2309 5.91717 39.8428L4.40388 37.9962C3.83316 37.2996 3.51873 36.4199 3.51873 35.5194V19.9428C3.51873 18.8264 4.42702 17.9181 5.54339 17.9181C6.61968 17.9181 7.50774 18.7601 7.56503 19.8348L8.12267 30.2789C6.88275 31.5792 6.90044 33.645 8.17754 34.9224L13.8683 40.6131C14.2232 40.9679 14.7983 40.9679 15.153 40.6131C15.5078 40.2584 15.5078 39.6832 15.153 39.3285L9.46227 33.6378C8.87447 33.05 8.87447 32.0936 9.46227 31.5059C10.0127 30.9558 10.8813 30.9127 11.4834 31.4056L24.0461 41.6965C24.616 42.1633 24.9428 42.8535 24.9428 43.5903V51.033H11.7791V47.7336C11.7791 47.2584 11.6131 46.7941 11.3119 46.4264L8.38284 42.852C8.0649 42.4639 7.49236 42.4074 7.1044 42.7251C6.71633 43.0431 6.65952 43.6155 6.97759 44.0036L9.90655 47.5779C9.94252 47.6217 9.96226 47.6769 9.96226 47.7336V51.3148C8.94763 51.7916 8.24319 52.8228 8.24319 54.0161V61.0922C8.24319 61.5939 8.64979 62.0006 9.1516 62.0006C9.6534 62.0006 10.06 61.5939 10.06 61.0922V54.0161C10.06 53.3729 10.5831 52.8498 11.2263 52.8498H25.496C26.139 52.8498 26.6621 53.3729 26.6621 54.0161V61.0922C26.6621 61.5939 27.0687 62.0006 27.5705 62.0006C28.0723 62.0006 28.4789 61.5939 28.4789 61.0922V54.0161C28.4788 52.8227 27.7744 51.7913 26.7597 51.3147Z" fill="#FFA600"/>
<path d="M56.4567 16.1016C54.4147 16.1016 52.7296 17.6989 52.6208 19.7381L52.11 29.3063C51.169 29.1218 50.1613 29.3481 49.3651 30.0002L36.8024 40.2911C35.8097 41.1044 35.2403 42.3069 35.2403 43.5903V51.3148C34.2257 51.7916 33.5212 52.8228 33.5212 54.0161V61.0922C33.5212 61.5939 33.9278 62.0006 34.4297 62.0006C34.9315 62.0006 35.3381 61.5939 35.3381 61.0922V54.0161C35.3381 53.3729 35.8612 52.8498 36.5043 52.8498H50.7739C51.4171 52.8498 51.9402 53.3729 51.9402 54.0161V55.2826C51.9402 55.7843 52.3468 56.1911 52.8486 56.1911C53.3504 56.1911 53.757 55.7843 53.757 55.2826V54.0161C53.757 52.8228 53.0524 51.7916 52.0379 51.3148V47.7631C52.0379 47.6875 52.0643 47.6136 52.1122 47.5551L59.0016 39.1477C59.8378 38.1273 60.2983 36.8386 60.2983 35.5194V19.9429C60.2982 17.8248 58.575 16.1016 56.4567 16.1016ZM58.4813 35.5196C58.4813 36.4203 58.1669 37.2999 57.5962 37.9964L50.7067 46.4038C50.3935 46.7863 50.2209 47.2691 50.2209 47.7633V51.0332H37.0571V43.5906C37.0571 42.8538 37.3839 42.1635 37.9538 41.6967L50.5165 31.4059C51.1186 30.9127 51.9875 30.9559 52.5377 31.5062C53.1255 32.094 53.1255 33.0503 52.5377 33.638L46.8469 39.3288C46.4921 39.6835 46.4921 40.2587 46.8469 40.6134C47.2018 40.9682 47.7769 40.9682 48.1316 40.6134L53.8224 34.9226C55.0995 33.6454 55.1172 31.5795 53.8774 30.2793L54.4349 19.8351C54.4923 18.7604 55.3804 17.9185 56.4566 17.9185C57.5729 17.9185 58.4812 18.8267 58.4812 19.9431V35.5196H58.4813Z" fill="#FFA600"/>
<path d="M52.8486 58.2461C52.3468 58.2461 51.9402 58.6528 51.9402 59.1545V61.0928C51.9402 61.5945 52.3468 62.0012 52.8486 62.0012C53.3504 62.0012 53.757 61.5945 53.757 61.0928V59.1545C53.757 58.6528 53.3504 58.2461 52.8486 58.2461Z" fill="#FFA600"/>
<path d="M42.0665 28.2218V21.8573C42.3656 21.9132 42.6381 22.0102 42.8797 22.1472C43.4835 22.4895 44.1709 22.6705 44.8676 22.6705C45.9786 22.6705 47.052 22.2057 47.8127 21.3955C48.584 20.5739 48.9696 19.4998 48.8983 18.3709C48.7706 16.3504 47.1506 14.7296 45.1299 14.6009C44.3536 14.5511 43.5889 14.7227 42.915 15.096C42.65 15.2427 42.3657 15.3459 42.0665 15.4043V10.2782C42.0665 8.56455 40.6724 7.17044 38.9589 7.17044H32.2974C32.3331 6.73973 32.4456 6.35517 32.6314 6.02717C32.9737 5.42326 33.1547 4.73578 33.1547 4.03921C33.1547 2.9284 32.69 1.85502 31.88 1.09438C31.0585 0.322959 29.9842 -0.0630548 28.8558 0.00840685C26.8352 0.135705 25.2142 1.75558 25.0852 3.77662C25.0358 4.55167 25.207 5.31776 25.5805 5.99217C25.7802 6.35275 25.8993 6.74918 25.9341 7.17044H19.7618C18.0482 7.17044 16.6541 8.56455 16.6541 10.2782V13.348C16.6541 13.8497 17.0607 14.2564 17.5625 14.2564C18.0643 14.2564 18.4709 13.8497 18.4709 13.348V10.2782C18.4709 9.56646 19.05 8.98726 19.7618 8.98726H26.1921C26.6325 8.98726 27.0561 8.80146 27.3543 8.47746C27.6525 8.15346 27.8026 7.71597 27.7661 7.27727L27.7448 7.02085C27.6885 6.34136 27.495 5.69905 27.1698 5.11186C26.9649 4.74183 26.871 4.31997 26.8983 3.89217C26.968 2.79989 27.878 1.89039 28.97 1.82159C29.5914 1.78259 30.1844 1.99443 30.6363 2.41872C31.0887 2.8435 31.3378 3.41894 31.3378 4.03909C31.3378 4.42231 31.2386 4.79985 31.0509 5.13112C30.7341 5.69009 30.5441 6.3261 30.4866 7.0211L30.4653 7.27727C30.429 7.71609 30.579 8.15346 30.8773 8.47746C31.1755 8.80146 31.5991 8.98714 32.0394 8.98714H38.9589C39.6706 8.98714 40.2497 9.56622 40.2497 10.2781V15.9276C40.2497 16.3044 40.4088 16.667 40.6861 16.9222C40.9634 17.1772 41.3379 17.3058 41.7132 17.2748L41.8861 17.2605C42.5653 17.2041 43.2075 17.0106 43.7952 16.6854C44.1648 16.4807 44.5856 16.3868 45.0145 16.4139C46.1067 16.4836 47.016 17.3933 47.0851 18.4854C47.1244 19.108 46.9125 19.7 46.4881 20.1519C46.0633 20.6044 45.4879 20.8535 44.8676 20.8535C44.4845 20.8535 44.1069 20.7543 43.7756 20.5665C43.2166 20.2497 42.5806 20.0598 41.8855 20.0023L41.7131 19.988C41.3391 19.9572 40.9632 20.0854 40.686 20.3406C40.4087 20.5958 40.2497 20.9583 40.2497 21.3351V28.2217C40.2497 28.9335 39.6706 29.5126 38.9589 29.5126H32.2649L32.2972 29.1247C32.3331 28.6932 32.4455 28.3081 32.6314 27.9801C32.9737 27.3763 33.1547 26.6888 33.1547 25.9921C33.1547 24.8813 32.69 23.8079 31.88 23.0473C31.0585 22.2759 29.9842 21.8901 28.8558 21.9613C26.8352 22.0886 25.2142 23.7085 25.0852 25.7295C25.0358 26.5046 25.207 27.2707 25.5805 27.9451C25.7802 28.3058 25.8993 28.7023 25.9341 29.1238L25.9665 29.5125H19.7618C19.05 29.5125 18.4709 28.9334 18.4709 28.2216V17.219C18.4709 16.7174 18.0643 16.3106 17.5625 16.3106C17.0607 16.3106 16.6541 16.7174 16.6541 17.219V28.2216C16.6541 29.9352 18.0482 31.3293 19.7618 31.3293H26.5093C26.8766 31.3293 27.2299 31.1743 27.4786 30.9041C27.7273 30.6338 27.8523 30.2689 27.8219 29.9032L27.7448 28.9737C27.6885 28.2943 27.495 27.652 27.1698 27.0648C26.9649 26.6947 26.871 26.2729 26.8983 25.8451C26.968 24.7528 27.878 23.8433 28.97 23.7745C29.5912 23.7342 30.1843 23.9473 30.6363 24.3716C31.0887 24.7964 31.3378 25.3718 31.3378 25.992C31.3378 26.3752 31.2386 26.7527 31.0508 27.084C30.7343 27.6427 30.5444 28.2786 30.4866 28.9741L30.4095 29.9032C30.3792 30.2691 30.5044 30.634 30.7531 30.9042C31.0019 31.1743 31.355 31.3293 31.7222 31.3293H38.9589C40.6724 31.3296 42.0665 29.9355 42.0665 28.2218Z" fill="#FFA600"/>
</g>
<defs>
<clipPath id="clip0_542_7332">
<rect width="62" height="62" fill="white"/>
</clipPath>
</defs>
</svg>
