<svg width="62" height="62" viewBox="0 0 62 62" fill="none" xmlns="http://www.w3.org/2000/svg">
<path d="M40.2628 44.861L39.3854 39.7463C39.2901 39.1899 38.7617 38.8161 38.2054 38.9119C37.649 39.0073 37.2754 39.5356 37.371 40.0919L37.8982 43.1656L31.4761 39.7894C31.1783 39.633 30.8227 39.633 30.5251 39.7894L24.1031 43.1658L25.3295 36.0146C25.3865 35.683 25.2765 35.3448 25.0358 35.11L19.8402 30.0456L27.0201 29.0023C27.5789 28.9211 27.9658 28.4026 27.8846 27.8439C27.8035 27.2852 27.2831 26.8983 26.7264 26.9795L17.4972 28.3206C17.1122 28.3765 16.7923 28.6461 16.6721 29.0161C16.5519 29.386 16.6522 29.7923 16.9306 30.0638L23.2242 36.1985L21.7386 44.8611C21.6729 45.2443 21.8304 45.632 22.1451 45.8606C22.4597 46.0891 22.8769 46.1194 23.2213 45.9384L31.0006 41.8485L38.78 45.9384C38.9298 46.0169 39.0931 46.0557 39.2556 46.0557C39.4676 46.0557 39.6784 45.9898 39.8563 45.8603C40.171 45.6317 40.3287 45.2442 40.2628 44.861Z" fill="#FFA600"/>
<path d="M45.3281 29.0159C45.2079 28.646 44.888 28.3763 44.5029 28.3205L35.8054 27.0566L31.9157 19.1752C31.7435 18.8263 31.3882 18.6055 30.9992 18.6055C30.6101 18.6055 30.2549 18.8263 30.0826 19.1752L27.7704 23.8601C27.5212 24.366 27.729 24.9789 28.2351 25.2286C28.7415 25.4788 29.3541 25.2706 29.6038 24.7644L30.9994 21.9365L34.2103 28.4428C34.3593 28.7443 34.6469 28.9535 34.9798 29.0019L42.1598 30.0452L36.9641 35.1096C36.5599 35.5035 36.5518 36.1506 36.9456 36.5547C37.146 36.7602 37.4116 36.8634 37.6776 36.8634C37.9347 36.8634 38.1921 36.7669 38.3908 36.5732L45.0693 30.0635C45.348 29.792 45.4482 29.386 45.3281 29.0159Z" fill="#FFA600"/>
<path d="M26.7121 53.8658C23.2709 53.0867 20.0674 51.3958 17.4302 49.0039C17.1003 48.6392 16.7173 48.2549 16.2838 47.882C15.8615 47.4361 15.4569 46.9707 15.0727 46.4863C13.277 44.2226 11.9641 41.6039 11.198 38.8189C11.1323 38.5044 11.0516 38.1752 10.9529 37.8377C10.5982 36.2677 10.414 34.6534 10.414 33.0263C10.414 27.851 12.2424 22.8595 15.5623 18.9713C15.6084 18.9171 15.648 18.8596 15.681 18.7997C15.6838 18.7988 15.6864 18.7984 15.6892 18.7974C16.9387 18.3945 19.9991 17.1585 21.4311 14.3913C22.859 11.6315 22.1347 8.36963 21.757 7.09512C21.6533 6.74552 21.4074 6.44666 21.0819 6.27507C20.7588 6.10457 20.3763 6.07043 20.0322 6.18111C18.7828 6.58398 15.7224 7.81987 14.2903 10.5872C12.9116 13.2519 13.5394 16.3842 13.9243 17.7441C12.8142 19.0591 11.8584 20.4866 11.0684 21.9987C10.9554 21.1702 10.7264 20.3263 10.324 19.521C9.83541 18.5428 8.27306 16.1254 4.33037 14.8093C3.98344 14.6933 3.59557 14.7238 3.26596 14.8927C2.93331 15.0628 2.6795 15.363 2.56955 15.716C2.15044 17.0586 1.3333 20.4973 2.79575 23.4244C3.28436 24.4024 4.84671 26.8197 8.78965 28.1361C8.81653 28.1451 8.84366 28.1524 8.8709 28.1596C8.54092 29.7486 8.3703 31.3788 8.3703 33.0261C8.3703 33.2092 8.37284 33.3923 8.37708 33.5751C7.42311 32.7595 5.16919 31.3029 1.34032 31.4203C0.974985 31.4316 0.621512 31.5943 0.370363 31.8667C0.117277 32.1414 -0.0171366 32.5109 0.001754 32.8801C0.0727149 34.2847 0.495211 37.7938 2.87918 40.0347C3.64789 40.7569 5.81607 42.3898 9.69725 42.3898C9.84002 42.3898 9.98533 42.3877 10.1326 42.3832C10.1808 42.3817 10.229 42.3771 10.2766 42.3705C10.7802 43.5548 11.379 44.6973 12.0694 45.784C10.8464 45.5889 8.13962 45.5151 4.91477 47.6562C4.61022 47.8583 4.39552 48.1828 4.32565 48.5467C4.25529 48.9135 4.33582 49.2984 4.54664 49.6027C5.34744 50.7589 7.55655 53.5181 10.7632 54.1652C11.0895 54.2311 11.5812 54.3004 12.2057 54.3004C13.6341 54.3003 15.7556 53.9371 18.165 52.3373C18.1942 52.3179 18.2218 52.2964 18.2494 52.275C20.6623 53.9792 23.3853 55.2083 26.2606 55.8593C26.3366 55.8765 26.4124 55.8846 26.4871 55.8846C26.954 55.8846 27.3756 55.5627 27.483 55.0882C27.608 54.5377 27.2626 53.9905 26.7121 53.8658ZM16.1056 11.5267C16.9925 9.81259 18.8575 8.83257 19.9769 8.37654C20.2422 9.57803 20.5103 11.723 19.6158 13.4518C18.7289 15.1659 16.8639 16.1459 15.7445 16.602C15.4792 15.4005 15.2111 13.2556 16.1056 11.5267ZM8.78347 25.9528C7.60414 25.4672 5.5648 24.3939 4.62414 22.511C3.67392 20.6091 4.02836 18.2584 4.33667 16.9927C5.51588 17.4783 7.55522 18.5516 8.49588 20.4346V20.4347C9.44586 22.3363 9.09141 24.6874 8.78347 25.9528ZM4.27903 38.5452C2.72988 37.0891 2.24962 34.761 2.10104 33.4667C3.37567 33.5146 5.66022 33.8166 7.19388 35.258C8.12775 36.1356 8.67134 37.3292 8.98994 38.4233C9.05218 38.6912 9.11975 38.9577 9.19107 39.2231C9.2785 39.6376 9.33542 40.0185 9.37187 40.3366C8.09723 40.2886 5.81256 39.9865 4.27903 38.5452ZM11.1682 52.1617C9.08439 51.7412 7.4489 50.0157 6.64023 48.9944C7.74861 48.3633 9.84898 47.4152 11.9122 47.8319C13.0713 48.0659 14.0911 48.7039 14.9078 49.3996C15.2448 49.7506 15.592 50.0903 15.9491 50.4181C16.1354 50.6255 16.3009 50.8232 16.4404 50.9991C15.332 51.6304 13.2321 52.5779 11.1682 52.1617Z" fill="#FFA600"/>
<path d="M61.6289 31.8668C61.3778 31.5944 61.0244 31.4319 60.6595 31.4207C56.831 31.3033 54.5764 32.7602 53.6225 33.5756C53.6267 33.3928 53.6292 33.2098 53.6292 33.0265C53.6292 31.379 53.4585 29.749 53.1286 28.16C53.1559 28.1527 53.183 28.1456 53.2098 28.1365C57.1531 26.8199 58.7153 24.4028 59.2039 23.4247C60.6659 20.4981 59.8491 17.0593 59.43 15.7163C59.3198 15.363 59.0656 15.063 58.7335 14.8931C58.404 14.7245 58.0162 14.694 57.6694 14.8096C53.7266 16.1258 52.1641 18.5431 51.6754 19.5214C51.273 20.3267 51.0439 21.1706 50.931 21.999C50.1411 20.487 49.1853 19.0593 48.0754 17.7443C48.4604 16.3846 49.0882 13.2522 47.7093 10.5874C46.2773 7.81997 43.2169 6.58409 41.9676 6.18133C41.6238 6.07029 41.241 6.10456 40.9176 6.2753C40.5922 6.44701 40.3462 6.74611 40.2429 7.09535C39.8651 8.36974 39.1407 11.6315 40.5687 14.3914C42.0007 17.1587 45.0611 18.3945 46.3105 18.7975C46.3131 18.7983 46.3159 18.7988 46.3187 18.7998C46.3516 18.8597 46.3912 18.9174 46.4374 18.9715C49.7573 22.8597 51.5857 27.8512 51.5857 33.0265C51.5857 34.6537 51.4016 36.2683 51.0468 37.8384C50.9481 38.1755 50.8675 38.5044 50.802 38.8185C50.0358 41.6039 48.7229 44.2227 46.927 46.4865C46.5428 46.9707 46.1386 47.4358 45.7165 47.8814C45.2824 48.2549 44.8988 48.6397 44.5686 49.0048C41.9318 51.3964 38.7285 53.0869 35.2877 53.866C34.7372 53.9907 34.3921 54.5379 34.5167 55.0884C34.6241 55.5629 35.0455 55.8849 35.5125 55.8849C35.5874 55.8849 35.6631 55.8765 35.7391 55.8596C38.6143 55.2084 41.3374 53.9793 43.7503 52.2752C43.7777 52.2967 43.8052 52.3181 43.8343 52.3374C46.2446 53.9377 48.3654 54.3007 49.7938 54.3007C50.418 54.3007 50.9101 54.2313 51.2361 54.1656C54.4435 53.5183 56.6521 50.7592 57.4529 49.603C57.6637 49.2987 57.7443 48.914 57.6739 48.5471C57.604 48.1832 57.3893 47.8587 57.0851 47.6569C53.8603 45.5157 51.1531 45.5895 49.9303 45.7846C50.6207 44.6979 51.2195 43.5551 51.7231 42.3709C51.7708 42.3776 51.8188 42.3821 51.8671 42.3836C52.0147 42.3881 52.1597 42.3903 52.3024 42.3903C56.1835 42.3903 58.3521 40.7574 59.1205 40.0351C61.5047 37.7943 61.9272 34.2853 61.9982 32.8804C62.0166 32.5107 61.8821 32.1412 61.6289 31.8668ZM46.255 16.6022C45.1355 16.1463 43.2706 15.1662 42.3839 13.4522C41.4894 11.7234 41.7572 9.57862 42.0228 8.37688C43.1423 8.8328 45.007 9.81281 45.8939 11.5269C46.7883 13.2556 46.5206 15.4004 46.255 16.6022ZM50.0874 47.8323C52.1506 47.4161 54.2509 48.3635 55.3594 48.9948C54.5511 50.0161 52.9155 51.7414 50.8314 52.1621C48.769 52.5779 46.6678 51.6308 45.5594 50.9996C45.6986 50.8238 45.8639 50.6264 46.05 50.4191C46.4076 50.0907 46.7552 49.7504 47.0928 49.3988C47.9091 48.7035 48.9286 48.0661 50.0874 47.8323ZM53.5038 20.4349C54.4446 18.5519 56.4838 17.4787 57.6631 16.9931C57.9711 18.2589 58.3255 20.6096 57.3756 22.5113C56.435 24.394 54.3958 25.4673 53.2163 25.9532C52.908 24.6877 52.5536 22.3369 53.5038 20.4349ZM57.7205 38.5456C56.1869 39.9871 53.9023 40.289 52.6277 40.3369C52.6643 40.0187 52.7212 39.6377 52.8087 39.2228C52.8798 38.9581 52.9472 38.6921 53.0095 38.4247C53.328 37.3305 53.8718 36.1363 54.806 35.2585C56.3397 33.817 58.6241 33.5151 59.8989 33.4671C59.7501 34.7612 59.2698 37.0894 57.7205 38.5456Z" fill="#FFA600"/>
</svg>
