<svg width="61" height="61" viewBox="0 0 61 61" fill="none" xmlns="http://www.w3.org/2000/svg">
<path d="M31.7712 55.9154H24.1462C15.7591 55.9154 11.5655 55.9154 8.96003 53.1726C6.35449 50.43 6.35449 46.0159 6.35449 37.1873V23.81C6.35449 14.9816 6.35449 10.5674 8.96003 7.82469C11.5655 5.08203 15.7591 5.08203 24.1462 5.08203H31.7712C40.1581 5.08203 44.3516 5.08203 46.9573 7.82469C49.5628 10.5674 49.5628 14.9816 49.5628 23.81V27.957" stroke="white" stroke-width="2" stroke-linecap="round" stroke-linejoin="round"/>
<path d="M45.7503 38.125V55.9167M54.6462 47.0208H36.8545" stroke="white" stroke-width="2" stroke-linecap="round"/>
<path d="M17.792 5.08203L18.0009 6.33558C18.5081 9.37857 18.7617 10.9 19.8282 11.8035C20.8947 12.707 22.4371 12.707 25.5221 12.707H30.3952C33.4802 12.707 35.0227 12.707 36.0891 11.8035C37.1556 10.9 37.4094 9.37857 37.9163 6.33558L38.1253 5.08203" stroke="white" stroke-width="2" stroke-linecap="round" stroke-linejoin="round"/>
<path d="M17.792 40.6654H27.9587M17.792 27.957H38.1253" stroke="white" stroke-width="2" stroke-linecap="round"/>
</svg>
