<svg width="61" height="61" viewBox="0 0 61 61" fill="none" xmlns="http://www.w3.org/2000/svg">
<path d="M17.792 45.7513V40.668M30.5003 45.7513V38.1263M43.2087 45.7513V33.043M6.35449 30.5013C6.35449 19.1188 6.35449 13.4276 9.89056 9.89154C13.4266 6.35547 19.1179 6.35547 30.5003 6.35547C41.8827 6.35547 47.574 6.35547 51.1102 9.89154C54.6462 13.4276 54.6462 19.1188 54.6462 30.5013C54.6462 41.8837 54.6462 47.575 51.1102 51.1112C47.574 54.6471 41.8827 54.6471 30.5003 54.6471C19.1179 54.6471 13.4266 54.6471 9.89056 51.1112C6.35449 47.575 6.35449 41.8837 6.35449 30.5013Z" stroke="white" stroke-width="2" stroke-linecap="round" stroke-linejoin="round"/>
<path d="M15.2305 29.1935C20.708 29.3761 33.1286 28.5492 40.1934 17.3368M35.5641 15.9821L40.3309 15.2149C40.912 15.1409 41.765 15.5996 41.9746 16.1464L43.2351 20.3108" stroke="white" stroke-width="2" stroke-linecap="round" stroke-linejoin="round"/>
</svg>
