<svg width="62" height="62" viewBox="0 0 62 62" fill="none" xmlns="http://www.w3.org/2000/svg">
<path d="M61.09 57.209H56.9077V40.1799C56.9077 39.6773 56.5003 39.2699 55.9978 39.2699C55.4952 39.2699 55.0878 39.6773 55.0878 40.1799V57.209H48.0006V27.2561C48.0006 27.0889 48.1366 26.9528 48.3039 26.9528H54.7845C54.9517 26.9528 55.0878 27.0889 55.0878 27.2561V36.54C55.0878 37.0425 55.4952 37.4499 55.9978 37.4499C56.5003 37.4499 56.9077 37.0425 56.9077 36.54V27.2561C56.9077 26.0854 55.9553 25.1328 54.7845 25.1328H48.3039C47.1332 25.1328 46.1807 26.0854 46.1807 27.2561V57.2091H43.2116V33.8786C43.2116 32.7079 42.259 31.7553 41.0883 31.7553H34.6078C33.4369 31.7553 32.4845 32.7079 32.4845 33.8786V57.2091H29.5154V40.501C29.5154 39.3303 28.563 38.3778 27.3921 38.3778H20.9116C19.7409 38.3778 18.7883 39.3303 18.7883 40.501V48.4582C18.7883 48.9607 19.1957 49.3681 19.6983 49.3681C20.2008 49.3681 20.6083 48.9607 20.6083 48.4582V40.501C20.6083 40.3337 20.7444 40.1977 20.9116 40.1977H27.3921C27.5594 40.1977 27.6954 40.3337 27.6954 40.501V57.209H20.6083V52.0981C20.6083 51.5955 20.2008 51.1881 19.6983 51.1881C19.1957 51.1881 18.7883 51.5955 18.7883 52.0981V57.209H15.8192V47.1235C15.8192 45.9528 14.8668 45.0002 13.6959 45.0002H7.21554C6.04482 45.0002 5.09225 45.9528 5.09225 47.1235V57.209H0.90998C0.407429 57.209 0 57.6164 0 58.119C0 58.6215 0.407429 59.029 0.90998 59.029H61.09C61.5926 59.029 62 58.6215 62 58.119C62 57.6164 61.5926 57.209 61.09 57.209ZM34.3044 33.8786C34.3044 33.7114 34.4406 33.5752 34.6078 33.5752H41.0883C41.2555 33.5752 41.3916 33.7114 41.3916 33.8786V57.2091H34.3044V33.8786ZM6.91221 47.1235C6.91221 46.9563 7.04834 46.8202 7.21554 46.8202H13.6961C13.8634 46.8202 13.9994 46.9563 13.9994 47.1235V57.209H6.91221V47.1235Z" fill="#FFA600"/>
<path d="M9.71774 34.1383C9.7676 34.1383 9.81796 34.1365 9.86843 34.1331C16.5795 33.667 22.8903 32.2024 28.6257 29.78C36.3486 26.5182 42.7421 21.6014 47.6417 15.1586L50.7087 17.2911C51.3129 17.7416 52.2336 17.2001 52.1336 16.453L50.8624 3.79C50.8211 3.24923 50.2492 2.85139 49.7276 3.00026L37.4031 6.21018C36.6674 6.37616 36.48 7.4281 37.1129 7.83796L40.2079 9.98988C39.5922 10.9574 38.2354 12.8757 35.8698 15.2223C35.513 15.5763 35.5107 16.1524 35.8646 16.5091C36.2185 16.8659 36.7948 16.8682 37.1515 16.5143C40.7983 12.8968 42.1752 10.2518 42.2319 10.1411C42.4398 9.73557 42.3158 9.23884 41.9417 8.97871L39.776 7.47287L49.1579 5.02939L50.1256 14.6688L47.958 13.1617C47.5521 12.8795 46.9955 12.9729 46.7038 13.3719C41.9358 19.8958 35.6151 24.8523 27.9176 28.1033C21.0045 31.023 14.2181 32.0064 9.74249 32.3174C9.48102 32.3844 9.40179 31.9043 9.66217 31.8764C19.6325 28.7995 27.9591 24.4741 34.4106 19.0203C34.7945 18.6958 34.8425 18.1217 34.5181 17.7379C34.1938 17.3542 33.6194 17.3059 33.2358 17.6304C26.9724 22.9252 18.8606 27.1331 9.12564 30.1373C8.11472 30.4493 7.52153 31.4297 7.71517 32.4686C7.89923 33.4565 8.72877 34.1383 9.71774 34.1383Z" fill="#FFA600"/>
</svg>
