<svg width="39" height="45" viewBox="0 0 39 45" fill="none" xmlns="http://www.w3.org/2000/svg">
<path d="M7.08366 10.9766C6.88806 10.9766 6.72949 11.1351 6.72949 11.3307V29.7474C6.72949 29.943 6.88806 30.1016 7.08366 30.1016H26.917C27.1126 30.1016 27.2712 29.943 27.2712 29.7474V11.3307C27.2712 11.1351 27.1126 10.9766 26.917 10.9766H7.08366ZM4.60449 11.3307C4.60449 9.96152 5.71445 8.85156 7.08366 8.85156H26.917C28.2862 8.85156 29.3962 9.96152 29.3962 11.3307V29.7474C29.3962 31.1166 28.2862 32.2266 26.917 32.2266H7.08366C5.71445 32.2266 4.60449 31.1166 4.60449 29.7474V11.3307Z" fill="#3B8EFA"/>
<path d="M17.0003 3.89453C14.8487 3.89453 13.1045 5.63876 13.1045 7.79036V12.7487C13.1045 13.3355 12.6288 13.8112 12.042 13.8112C11.4552 13.8112 10.9795 13.3355 10.9795 12.7487V7.79036C10.9795 4.46515 13.6751 1.76953 17.0003 1.76953C20.3255 1.76953 23.0212 4.46515 23.0212 7.79036V12.7487C23.0212 13.3355 22.5454 13.8112 21.9587 13.8112C21.3719 13.8112 20.8962 13.3355 20.8962 12.7487V7.79036C20.8962 5.63876 19.152 3.89453 17.0003 3.89453Z" fill="#3B8EFA"/>
<circle cx="28" cy="34" r="11" fill="white"/>
<path d="M31.9496 38.986L25.1176 39V37.95L28.3796 35.136C30.0176 33.722 30.4796 33.036 30.4796 31.958C30.4796 30.684 29.7516 29.928 28.5336 29.928C27.2876 29.928 26.4756 30.838 26.4476 32.28H25.0756C25.1176 30.11 26.4896 28.696 28.5476 28.696C30.5776 28.696 31.8796 29.928 31.8796 31.874C31.8796 33.316 31.1656 34.338 29.3736 35.892L27.2736 37.712H31.9496V38.986Z" fill="#0D053A"/>
</svg>
