<svg width="65" height="64" viewBox="0 0 65 64" fill="none" xmlns="http://www.w3.org/2000/svg">
<path d="M35.2305 0.00488281L35.2031 20.8809L43.1992 1.59668L47.2764 3.28711L39.2178 22.7236L54.1719 7.92285L57.2764 11.0596L42.5049 25.6797L61.7148 17.7461L63.4004 21.8252L44.1084 29.793H64.9805V34.207H44.0596L63.3828 42.2266L61.6904 46.3027L42.3672 38.2832L57.1426 53.0957L54.0176 56.2129L39.3076 41.4658L47.3027 60.6992L43.2275 62.3936L35.1758 43.0234L35.1494 64L30.7363 63.9941L30.7627 43.1152L22.7666 62.4023L18.6895 60.7119L26.7471 41.2764L11.7939 56.0781L8.68848 52.9414L23.46 38.3203L4.25098 46.2539L2.56641 42.1748L21.8584 34.207H0.985352V29.793H21.9092L2.58398 21.7725L4.27539 17.6963L23.5957 25.7148L8.82324 10.9043L11.9482 7.78711L26.6582 22.5342L18.6631 3.30078L22.7393 1.60645L30.79 20.9756L30.8174 0L35.2305 0.00488281Z" fill="#FF3116"/>
</svg>
