<svg width="64" height="64" viewBox="0 0 64 64" fill="none" xmlns="http://www.w3.org/2000/svg">
<path d="M34.2451 0.00488281L34.2178 20.8809L42.2139 1.59668L46.291 3.28711L38.2324 22.7236L53.1865 7.92285L56.291 11.0596L41.5195 25.6797L60.7295 17.7461L62.415 21.8252L43.123 29.793H63.9951V34.207H43.0742L62.3975 42.2266L60.7051 46.3027L41.3818 38.2832L56.1572 53.0957L53.0322 56.2129L38.3223 41.4658L46.3174 60.6992L42.2422 62.3936L34.1904 43.0234L34.1641 64L29.751 63.9941L29.7773 43.1152L21.7812 62.4023L17.7041 60.7119L25.7617 41.2764L10.8086 56.0781L7.70312 52.9414L22.4746 38.3203L3.26562 46.2539L1.58105 42.1748L20.873 34.207H0V29.793H20.9238L1.59863 21.7725L3.29004 17.6963L22.6104 25.7148L7.83789 10.9043L10.9629 7.78711L25.6729 22.5342L17.6777 3.30078L21.7539 1.60645L29.8047 20.9756L29.832 0L34.2451 0.00488281Z" fill="#B3DE4F"/>
</svg>
