<svg width="31" height="30" viewBox="0 0 31 30" fill="none" xmlns="http://www.w3.org/2000/svg">
<path d="M16.999 0.00292969L16.9863 9.78711L20.7344 0.749023L22.6445 1.54102L18.8672 10.6494L25.876 3.71289L27.3311 5.18262L20.4072 12.0342L29.4111 8.31641L30.2002 10.2285L21.1602 13.9619H30.9414V16.0303H21.1357L30.1924 19.7891L29.3994 21.6992L20.3438 17.9404L27.2676 24.8818L25.8037 26.3428L18.9102 19.4307L22.6572 28.4453L20.7471 29.2393L16.9736 20.1631L16.9619 29.9922L14.8936 29.9902L14.9053 20.2051L11.1582 29.2441L9.24805 28.4521L13.0244 19.3418L6.0166 26.2793L4.56152 24.8096L11.4834 17.957L2.48145 21.6758L1.69238 19.7646L10.7344 16.0303H0.951172V13.9619H10.7568L1.7002 10.2031L2.49316 8.29297L11.5479 12.0508L4.625 5.11035L6.08887 3.64941L12.9814 10.5605L9.23535 1.54688L11.1455 0.75293L14.9189 9.83008L14.9316 0L16.999 0.00292969Z" fill="white"/>
</svg>
