<svg width="64" height="64" viewBox="0 0 64 64" fill="none" xmlns="http://www.w3.org/2000/svg">
<path d="M34.2354 0.00488281L34.208 20.8809L42.2041 1.59668L46.2812 3.28711L38.2227 22.7236L53.1768 7.92285L56.2812 11.0605L41.5107 25.6787L60.7207 17.7461L62.4053 21.8252L43.1133 29.793H63.9854V34.207H43.0645L62.3877 42.2266L60.6953 46.3027L41.3721 38.2832L56.1475 53.0957L53.0225 56.2129L38.3125 41.4658L46.3076 60.6992L42.2324 62.3936L34.1807 43.0225L34.1543 64L29.7412 63.9941L29.7676 43.1152L21.7715 62.4023L17.6943 60.7119L25.752 41.2764L10.7979 56.0781L7.69336 52.9414L22.4648 38.3203L3.25586 46.2539L1.57129 42.1748L20.8633 34.207H-0.00976562V29.793H20.9141L1.58887 21.7725L3.28027 17.6963L22.6006 25.7148L7.82812 10.9043L10.9531 7.78711L25.6641 22.5361L17.6689 3.2998L21.7441 1.60645L29.7949 20.9756L29.8223 0L34.2354 0.00488281Z" fill="#FFA600"/>
</svg>
