<svg width="104" height="104" viewBox="0 0 104 104" fill="none" xmlns="http://www.w3.org/2000/svg">
<path fill-rule="evenodd" clip-rule="evenodd" d="M50.9467 58.2687C51.601 58.6327 52.3983 58.6327 53.0527 58.2687L92.0527 36.602C92.7417 36.2207 93.1663 35.497 93.1663 34.7083C93.1663 33.924 92.7417 33.196 92.0527 32.8147L53.0527 11.148C52.3983 10.784 51.601 10.784 50.9467 11.148L11.9467 32.8147C11.2577 33.196 10.833 33.924 10.833 34.7083C10.833 35.497 11.2577 36.2207 11.9467 36.602L50.9467 58.2687ZM51.9997 53.8963L17.463 34.7083L51.9997 15.5203L86.5363 34.7083L51.9997 53.8963Z" fill="white" fill-opacity="0.12"/>
<path fill-rule="evenodd" clip-rule="evenodd" d="M11.9467 53.9351L50.9467 75.6018C51.601 75.9658 52.3983 75.9658 53.0527 75.6018L92.0527 53.9351C93.097 53.3544 93.474 52.0371 92.8933 50.9884C92.3127 49.9441 90.991 49.5671 89.9467 50.1478L51.9997 71.2294L14.0527 50.1478C13.0083 49.5671 11.6867 49.9441 11.106 50.9884C10.5253 52.0371 10.9023 53.3544 11.9467 53.9351Z" fill="white" fill-opacity="0.12"/>
<path fill-rule="evenodd" clip-rule="evenodd" d="M11.9467 71.2671L50.9467 92.9338C51.601 93.2978 52.3983 93.2978 53.0527 92.9338L92.0527 71.2671C93.097 70.6865 93.474 69.3691 92.8933 68.3205C92.3127 67.2761 90.991 66.8991 89.9467 67.4798L51.9997 88.5615L14.0527 67.4798C13.0083 66.8991 11.6867 67.2761 11.106 68.3205C10.5253 69.3691 10.9023 70.6865 11.9467 71.2671Z" fill="white" fill-opacity="0.12"/>
</svg>
