<svg width="60" height="60" viewBox="0 0 60 60" fill="none" xmlns="http://www.w3.org/2000/svg">
<path d="M10.3945 30.2432V22.8912C10.3945 21.5377 11.4918 20.4405 12.8452 20.4405H22.648M10.3945 30.2432V42.4967C10.3945 43.8503 11.4918 44.9474 12.8452 44.9474H47.155C48.5085 44.9474 49.6057 43.8503 49.6057 42.4967V30.2432M10.3945 30.2432L27.5494 32.6939H32.4508L49.6057 30.2432M22.648 20.4405V17.9898C22.648 16.6363 23.7452 15.5391 25.0987 15.5391H34.9015C36.255 15.5391 37.3522 16.6363 37.3522 17.9898V20.4405M22.648 20.4405H37.3522M49.6057 30.2432V22.8912C49.6057 21.5377 48.5085 20.4405 47.155 20.4405H37.3522M27.5494 36.37H32.4508" stroke="white" stroke-width="2" stroke-linecap="round" stroke-linejoin="round"/>
</svg>
