<svg width="50" height="50" viewBox="0 0 50 50" fill="none" xmlns="http://www.w3.org/2000/svg">
<path d="M42.9688 8.59375H41.4062V4.6875C41.4054 3.85897 41.0758 3.06463 40.49 2.47877C39.9041 1.89291 39.1098 1.56338 38.2812 1.5625H11.7188C10.8902 1.56338 10.0959 1.89291 9.51002 2.47877C8.92416 3.06463 8.59463 3.85897 8.59375 4.6875V8.59375H7.03125C6.20272 8.59463 5.40838 8.92416 4.82252 9.51002C4.23666 10.0959 3.90713 10.8902 3.90625 11.7188V35.1562C3.90713 35.9848 4.23666 36.7791 4.82252 37.365C5.40838 37.9508 6.20272 38.2804 7.03125 38.2812H21.0938V40.2897C18.1853 40.9968 16.4062 42.4416 16.4062 44.1406C16.4062 46.5904 20.1008 48.4375 25 48.4375C29.8992 48.4375 33.5938 46.5904 33.5938 44.1406C33.5938 42.4416 31.8147 40.9967 28.9062 40.2897V38.2812H42.9688C43.7973 38.2804 44.5916 37.9508 45.1775 37.365C45.7633 36.7791 46.0929 35.9848 46.0938 35.1562V11.7188C46.0929 10.8902 45.7633 10.0959 45.1775 9.51002C44.5916 8.92416 43.7973 8.59463 42.9688 8.59375ZM10.1562 4.6875C10.1567 4.27324 10.3215 3.87609 10.6144 3.58317C10.9073 3.29025 11.3045 3.12547 11.7188 3.125H38.2812C38.6955 3.12547 39.0927 3.29025 39.3856 3.58317C39.6785 3.87609 39.8433 4.27324 39.8438 4.6875V25C39.8433 25.4143 39.6785 25.8114 39.3856 26.1043C39.0927 26.3973 38.6955 26.562 38.2812 26.5625H11.7188C11.3045 26.562 10.9073 26.3973 10.6144 26.1043C10.3215 25.8114 10.1567 25.4143 10.1562 25V4.6875ZM32.0312 44.1406C32.0312 45.4315 29.0241 46.875 25 46.875C18.9255 46.821 14.7486 43.7414 21.3104 41.8521C21.5702 42.625 22.066 43.2967 22.728 43.7726C23.39 44.2485 24.1847 44.5045 25 44.5045C25.8153 44.5045 26.61 44.2485 27.272 43.7726C27.934 43.2967 28.4298 42.625 28.6896 41.8521C30.8799 42.418 32.0312 43.3923 32.0312 44.1406ZM27.3438 40.625C27.3368 41.242 27.0868 41.8314 26.648 42.2653C26.2092 42.6992 25.617 42.9425 25 42.9425C24.3829 42.9425 23.7907 42.6991 23.3519 42.2652C22.9132 41.8314 22.6632 41.242 22.6562 40.6249V38.2812H27.3438V40.625ZM44.5312 35.1562C44.5308 35.5705 44.366 35.9677 44.0731 36.2606C43.7802 36.5535 43.383 36.7183 42.9688 36.7188H7.03125C6.61699 36.7183 6.21984 36.5535 5.92692 36.2606C5.634 35.9677 5.46922 35.5705 5.46875 35.1562V11.7188C5.46922 11.3045 5.634 10.9073 5.92692 10.6144C6.21984 10.3215 6.61699 10.1567 7.03125 10.1562H8.59375V25C8.59463 25.8285 8.92416 26.6229 9.51002 27.2087C10.0959 27.7946 10.8902 28.1241 11.7188 28.125H38.2812C39.1098 28.1241 39.9041 27.7946 40.49 27.2087C41.0758 26.6229 41.4054 25.8285 41.4062 25V10.1562H42.9688C43.383 10.1567 43.7802 10.3215 44.0731 10.6144C44.366 10.9073 44.5308 11.3045 44.5312 11.7188V35.1562Z" fill="white"/>
<path d="M15.9325 17.7398C16.0789 17.8864 16.2776 17.9687 16.4848 17.9688H21.0151C21.2223 17.9687 21.421 17.8864 21.5675 17.7398L24.7711 14.5363C24.8437 14.4638 24.9012 14.3777 24.9405 14.2829C24.9798 14.1881 25 14.0865 25 13.9839V9.45359C25 9.35099 24.9798 9.24941 24.9405 9.15463C24.9012 9.05986 24.8437 8.97375 24.7711 8.90124L21.5675 5.69766C21.4211 5.55114 21.2224 5.46881 21.0152 5.46875H16.4848C16.2777 5.46881 16.079 5.55114 15.9325 5.69766L12.7289 8.90121C12.6563 8.97372 12.5988 9.05983 12.5595 9.1546C12.5202 9.24938 12.5 9.35096 12.5 9.45355V13.9839C12.5 14.0865 12.5202 14.1881 12.5595 14.2828C12.5988 14.3776 12.6563 14.4637 12.7289 14.5362L15.9325 17.7398ZM14.0625 9.77707L16.8083 7.03125H20.6917L23.4375 9.77707V13.6604L20.6917 16.4062H16.8083L14.0625 13.6604V9.77707Z" fill="white"/>
<path d="M21.875 11.7182C21.8676 10.8943 21.5351 10.1066 20.9499 9.52654C20.3646 8.9465 19.574 8.62108 18.75 8.62109C17.926 8.6211 17.1353 8.94654 16.5501 9.52659C15.9648 10.1066 15.6324 10.8943 15.625 11.7183C15.6324 12.5423 15.9649 13.33 16.5501 13.91C17.1354 14.49 17.926 14.8155 18.75 14.8154C19.574 14.8154 20.3647 14.49 20.9499 13.9099C21.5352 13.3299 21.8676 12.5422 21.875 11.7182ZM17.1875 11.7182C17.1922 11.3069 17.3589 10.914 17.6514 10.6248C17.9439 10.3357 18.3387 10.1735 18.75 10.1735C19.1614 10.1735 19.5561 10.3357 19.8486 10.6249C20.1411 10.9141 20.3078 11.307 20.3125 11.7183C20.3078 12.1296 20.1411 12.5225 19.8486 12.8117C19.5561 13.1009 19.1613 13.263 18.75 13.263C18.3386 13.263 17.9439 13.1008 17.6514 12.8116C17.3589 12.5224 17.1922 12.1295 17.1875 11.7182Z" fill="white"/>
<path d="M25.7813 17.1875C25.7812 17.2901 25.8014 17.3917 25.8407 17.4865C25.8799 17.5813 25.9375 17.6674 26.01 17.74C26.0826 17.8125 26.1687 17.8701 26.2635 17.9093C26.3583 17.9486 26.4599 17.9688 26.5625 17.9688H28.125C28.3303 17.9658 28.5262 17.8823 28.6703 17.7361C28.8145 17.5899 28.8953 17.3928 28.8953 17.1875C28.8953 16.9822 28.8145 16.7851 28.6703 16.6389C28.5262 16.4927 28.3303 16.4092 28.125 16.4062V7.03125C28.3303 7.02835 28.5262 6.94476 28.6703 6.79856C28.8145 6.65237 28.8953 6.45531 28.8953 6.25C28.8953 6.04469 28.8145 5.84764 28.6703 5.70144C28.5262 5.55524 28.3303 5.47165 28.125 5.46875H26.5625C26.3572 5.47165 26.1613 5.55524 26.0172 5.70144C25.873 5.84764 25.7922 6.04469 25.7922 6.25C25.7922 6.45531 25.873 6.65237 26.0172 6.79856C26.1613 6.94476 26.3572 7.02835 26.5625 7.03125V16.4062C26.4599 16.4062 26.3583 16.4264 26.2635 16.4657C26.1687 16.5049 26.0826 16.5625 26.01 16.635C25.9375 16.7076 25.8799 16.7937 25.8407 16.8885C25.8014 16.9833 25.7812 17.0849 25.7813 17.1875Z" fill="white"/>
<path d="M13.2812 21.8757C13.3839 21.8758 13.4855 21.8556 13.5803 21.8163C13.6751 21.7771 13.7612 21.7195 13.8337 21.647C13.9063 21.5744 13.9638 21.4883 14.0031 21.3935C14.0423 21.2987 14.0625 21.1971 14.0625 21.0945H23.4375C23.4404 21.2998 23.524 21.4957 23.6702 21.6398C23.8164 21.784 24.0134 21.8648 24.2188 21.8648C24.4241 21.8648 24.6211 21.784 24.7673 21.6398C24.9135 21.4957 24.9971 21.2998 25 21.0945V19.532C24.9971 19.3267 24.9135 19.1308 24.7673 18.9867C24.6211 18.8425 24.4241 18.7617 24.2188 18.7617C24.0134 18.7617 23.8164 18.8425 23.6702 18.9867C23.524 19.1308 23.4404 19.3267 23.4375 19.532H14.0625C14.0596 19.3267 13.976 19.1308 13.8298 18.9867C13.6836 18.8425 13.4866 18.7617 13.2812 18.7617C13.0759 18.7617 12.8789 18.8425 12.7327 18.9867C12.5865 19.1308 12.5029 19.3267 12.5 19.532V21.0945C12.5 21.1971 12.5202 21.2987 12.5594 21.3935C12.5987 21.4883 12.6562 21.5744 12.7288 21.647C12.8013 21.7195 12.8874 21.7771 12.9822 21.8163C13.077 21.8556 13.1786 21.8758 13.2812 21.8757Z" fill="white"/>
<path d="M32.0313 11.7188H36.7188C36.9241 11.7158 37.1199 11.6323 37.2641 11.4861C37.4082 11.3399 37.489 11.1428 37.489 10.9375C37.489 10.7322 37.4082 10.5351 37.2641 10.3889C37.1199 10.2427 36.9241 10.1592 36.7188 10.1562H32.0313C31.826 10.1592 31.6301 10.2427 31.4859 10.3889C31.3418 10.5351 31.261 10.7322 31.261 10.9375C31.261 11.1428 31.3418 11.3399 31.4859 11.4861C31.6301 11.6323 31.826 11.7158 32.0313 11.7188Z" fill="white"/>
<path d="M32.0313 14.8438H36.7188C36.9241 14.8408 37.1199 14.7573 37.2641 14.6111C37.4082 14.4649 37.489 14.2678 37.489 14.0625C37.489 13.8572 37.4082 13.6601 37.2641 13.5139C37.1199 13.3677 36.9241 13.2842 36.7188 13.2812H32.0313C31.826 13.2842 31.6301 13.3677 31.4859 13.5139C31.3418 13.6601 31.261 13.8572 31.261 14.0625C31.261 14.2678 31.3418 14.4649 31.4859 14.6111C31.6301 14.7573 31.826 14.8408 32.0313 14.8438Z" fill="white"/>
<path d="M36.7188 16.4062H33.5938C33.3885 16.4092 33.1926 16.4927 33.0484 16.6389C32.9043 16.7851 32.8235 16.9822 32.8235 17.1875C32.8235 17.3928 32.9043 17.5899 33.0484 17.7361C33.1926 17.8823 33.3885 17.9658 33.5938 17.9688H36.7188C36.9241 17.9658 37.1199 17.8823 37.2641 17.7361C37.4082 17.5899 37.489 17.3928 37.489 17.1875C37.489 16.9822 37.4082 16.7851 37.2641 16.6389C37.1199 16.4927 36.9241 16.4092 36.7188 16.4062Z" fill="white"/>
</svg>
