<svg width="50" height="50" viewBox="0 0 50 50" fill="none" xmlns="http://www.w3.org/2000/svg">
<path d="M40.625 9.375H4.6875C3.85895 9.37583 3.06458 9.70533 2.4787 10.2912C1.89283 10.8771 1.56333 11.6715 1.5625 12.5V42.1875C1.56333 43.016 1.89283 43.8104 2.4787 44.3963C3.06458 44.9822 3.85895 45.3117 4.6875 45.3125H40.625C41.4535 45.3117 42.2479 44.9822 42.8338 44.3963C43.4197 43.8104 43.7492 43.016 43.75 42.1875V12.5C43.7492 11.6715 43.4197 10.8771 42.8338 10.2912C42.2479 9.70533 41.4535 9.37583 40.625 9.375ZM4.6875 10.9375H40.625C41.0392 10.938 41.4364 11.1028 41.7293 11.3957C42.0222 11.6886 42.187 12.0858 42.1875 12.5V15.625H3.125V12.5C3.12554 12.0858 3.29033 11.6886 3.58324 11.3957C3.87615 11.1028 4.27326 10.938 4.6875 10.9375ZM40.625 43.75H4.6875C4.27326 43.7495 3.87615 43.5847 3.58324 43.2918C3.29033 42.9989 3.12554 42.6017 3.125 42.1875V17.1875H42.1875V42.1875C42.187 42.6017 42.0222 42.9989 41.7293 43.2918C41.4364 43.5847 41.0392 43.7495 40.625 43.75Z" fill="white"/>
<path d="M47.6563 10.9375H45.3125C45.1072 10.9404 44.9113 11.024 44.7672 11.1702C44.623 11.3164 44.5422 11.5134 44.5422 11.7188C44.5422 11.9241 44.623 12.1211 44.7672 12.2673C44.9113 12.4135 45.1072 12.4971 45.3125 12.5H47.6563C47.8616 12.4971 48.0574 12.4135 48.2016 12.2673C48.3457 12.1211 48.4265 11.9241 48.4265 11.7188C48.4265 11.5134 48.3457 11.3164 48.2016 11.1702C48.0574 11.024 47.8616 10.9404 47.6563 10.9375Z" fill="white"/>
<path d="M46.3784 7.85017C46.5202 7.70271 46.5985 7.50552 46.5964 7.30097C46.5944 7.09641 46.5123 6.90081 46.3676 6.75616C46.223 6.61152 46.0274 6.52938 45.8228 6.52738C45.6182 6.52538 45.4211 6.60369 45.2736 6.74548L43.6158 8.4033C43.474 8.55076 43.3957 8.74794 43.3977 8.9525C43.3998 9.15705 43.4819 9.35266 43.6266 9.4973C43.7712 9.64195 43.9668 9.72409 44.1714 9.72609C44.3759 9.72808 44.5731 9.64978 44.7206 9.50798L46.3784 7.85017Z" fill="white"/>
<path d="M41.4063 8.59375C41.5089 8.59381 41.6105 8.57364 41.7053 8.5344C41.8001 8.49516 41.8863 8.43761 41.9588 8.36506C42.0314 8.2925 42.0889 8.20635 42.1281 8.11154C42.1674 8.01673 42.1876 7.91511 42.1875 7.8125V5.46875C42.1875 5.26155 42.1052 5.06284 41.9587 4.91632C41.8122 4.76981 41.6135 4.6875 41.4063 4.6875C41.199 4.6875 41.0003 4.76981 40.8538 4.91632C40.7073 5.06284 40.625 5.26155 40.625 5.46875V7.8125C40.6249 7.91511 40.6451 8.01673 40.6844 8.11154C40.7236 8.20635 40.7811 8.2925 40.8537 8.36506C40.9262 8.43761 41.0124 8.49516 41.1072 8.5344C41.202 8.57364 41.3036 8.59381 41.4063 8.59375Z" fill="white"/>
<path d="M5.46877 14.0625H8.59377C8.79905 14.0596 8.99495 13.976 9.13909 13.8298C9.28324 13.6836 9.36405 13.4866 9.36405 13.2812C9.36405 13.0759 9.28324 12.8789 9.13909 12.7327C8.99495 12.5865 8.79905 12.5029 8.59377 12.5H5.46877C5.26348 12.5029 5.06758 12.5865 4.92344 12.7327C4.7793 12.8789 4.69849 13.0759 4.69849 13.2812C4.69849 13.4866 4.7793 13.6836 4.92344 13.8298C5.06758 13.976 5.26348 14.0596 5.46877 14.0625Z" fill="white"/>
<path d="M10.9375 14.0625H14.0625C14.2678 14.0596 14.4637 13.976 14.6078 13.8298C14.752 13.6836 14.8328 13.4866 14.8328 13.2812C14.8328 13.0759 14.752 12.8789 14.6078 12.7327C14.4637 12.5865 14.2678 12.5029 14.0625 12.5H10.9375C10.7322 12.5029 10.5363 12.5865 10.3922 12.7327C10.248 12.8789 10.1672 13.0759 10.1672 13.2812C10.1672 13.4866 10.248 13.6836 10.3922 13.8298C10.5363 13.976 10.7322 14.0596 10.9375 14.0625Z" fill="white"/>
<path d="M16.4063 14.0625H19.5313C19.7366 14.0596 19.9324 13.976 20.0766 13.8298C20.2207 13.6836 20.3015 13.4866 20.3015 13.2812C20.3015 13.0759 20.2207 12.8789 20.0766 12.7327C19.9324 12.5865 19.7366 12.5029 19.5313 12.5H16.4063C16.201 12.5029 16.0051 12.5865 15.8609 12.7327C15.7168 12.8789 15.636 13.0759 15.636 13.2812C15.636 13.4866 15.7168 13.6836 15.8609 13.8298C16.0051 13.976 16.201 14.0596 16.4063 14.0625Z" fill="white"/>
<path d="M25.3119 21.747C25.02 21.3104 24.6249 20.9525 24.1616 20.705C23.6983 20.4575 23.1812 20.328 22.6559 20.3281C22.1307 20.3282 21.6135 20.4578 21.1503 20.7055C20.6871 20.9531 20.2921 21.3111 20.0003 21.7479L10.8687 35.7142C10.5615 36.194 10.3884 36.7473 10.3674 37.3167C10.3464 37.8861 10.4783 38.4507 10.7494 38.9518C11.0205 39.4529 11.4209 39.8723 11.9089 40.1663C12.397 40.4603 12.9549 40.6182 13.5246 40.6236L31.7878 40.6237C32.3575 40.6182 32.9154 40.4603 33.4034 40.1663C33.8914 39.8723 34.2918 39.4529 34.5629 38.9518C34.834 38.4506 34.9658 37.886 34.9448 37.3166C34.9238 36.7473 34.7507 36.1939 34.4435 35.7141L25.3119 21.747ZM33.2046 38.2166C33.0684 38.4737 32.8643 38.6884 32.6144 38.8373C32.3646 38.9862 32.0786 39.0637 31.7878 39.0612H13.5245C13.2341 39.0611 12.9492 38.9826 12.6998 38.834C12.4504 38.6853 12.2458 38.472 12.1077 38.2166C11.9696 37.9612 11.903 37.6733 11.9151 37.3832C11.9272 37.0931 12.0175 36.8117 12.1764 36.5686L21.308 22.603C21.4544 22.3791 21.6543 22.1951 21.8897 22.0678C22.125 21.9404 22.3883 21.8737 22.6559 21.8736C22.9235 21.8736 23.1868 21.9401 23.4222 22.0673C23.6576 22.1945 23.8577 22.3784 24.0042 22.6022L33.1358 36.5686C33.297 36.8107 33.3887 37.0924 33.4008 37.383C33.4129 37.6736 33.345 37.962 33.2046 38.2166Z" fill="white"/>
<path d="M22.6566 24.2188C21.8998 24.2533 21.1874 24.586 20.6751 25.1441C20.1627 25.7021 19.8921 26.4403 19.9222 27.1973C19.9222 27.7443 20.5539 32.8125 22.6566 32.8125C24.7592 32.8125 25.3909 27.7443 25.3909 27.1973C25.4211 26.4403 25.1504 25.7021 24.6381 25.1441C24.1257 24.586 23.4134 24.2533 22.6566 24.2188ZM22.6566 31.1806C21.9681 29.9592 21.5673 28.5969 21.4847 27.1973C21.4559 26.8548 21.5625 26.5148 21.7816 26.25C22.0007 25.9853 22.3148 25.817 22.6566 25.7812C22.9983 25.817 23.3125 25.9853 23.5316 26.25C23.7507 26.5148 23.8572 26.8548 23.8284 27.1973C23.7459 28.5969 23.3451 29.9592 22.6566 31.1806Z" fill="white"/>
<path d="M22.6564 33.5938C22.0393 33.6007 21.4499 33.8507 21.0161 34.2895C20.5822 34.7283 20.3389 35.3205 20.3389 35.9375C20.3389 36.5546 20.5822 37.1468 21.0161 37.5856C21.45 38.0243 22.0394 38.2743 22.6564 38.2812C23.2735 38.2743 23.8629 38.0243 24.2967 37.5855C24.7306 37.1467 24.9739 36.5545 24.9739 35.9375C24.9739 35.3204 24.7306 34.7282 24.2967 34.2894C23.8628 33.8507 23.2734 33.6007 22.6564 33.5938ZM22.6564 36.7188C22.4511 36.7158 22.2552 36.6323 22.111 36.4861C21.9669 36.3399 21.8861 36.1428 21.8861 35.9375C21.8861 35.7322 21.9669 35.5351 22.111 35.3889C22.2552 35.2427 22.4511 35.1592 22.6564 35.1562C22.8616 35.1592 23.0575 35.2427 23.2017 35.3889C23.3458 35.5351 23.4266 35.7322 23.4266 35.9375C23.4266 36.1428 23.3458 36.3399 23.2017 36.4861C23.0575 36.6323 22.8616 36.7158 22.6564 36.7188Z" fill="white"/>
</svg>
