<svg width="50" height="50" viewBox="0 0 50 50" fill="none" xmlns="http://www.w3.org/2000/svg">
<path d="M42.9688 8.59375H41.4062V4.6875C41.4054 3.85897 41.0758 3.06463 40.49 2.47877C39.9041 1.89291 39.1098 1.56338 38.2812 1.5625H11.7188C10.8902 1.56338 10.0959 1.89291 9.51002 2.47877C8.92416 3.06463 8.59463 3.85897 8.59375 4.6875V8.59375H7.03125C6.20272 8.59463 5.40838 8.92416 4.82252 9.51002C4.23666 10.0959 3.90713 10.8902 3.90625 11.7188V35.1562C3.90713 35.9848 4.23666 36.7791 4.82252 37.365C5.40838 37.9508 6.20272 38.2804 7.03125 38.2812H21.0938V40.2897C18.1853 40.9968 16.4062 42.4416 16.4062 44.1406C16.4062 46.5904 20.1008 48.4375 25 48.4375C29.8992 48.4375 33.5938 46.5904 33.5938 44.1406C33.5938 42.4416 31.8147 40.9967 28.9062 40.2897V38.2812H42.9688C43.7973 38.2804 44.5916 37.9508 45.1775 37.365C45.7633 36.7791 46.0929 35.9848 46.0938 35.1562V11.7188C46.0929 10.8902 45.7633 10.0959 45.1775 9.51002C44.5916 8.92416 43.7973 8.59463 42.9688 8.59375ZM10.1562 4.6875C10.1567 4.27324 10.3215 3.87609 10.6144 3.58317C10.9073 3.29025 11.3045 3.12547 11.7188 3.125H38.2812C38.6955 3.12547 39.0927 3.29025 39.3856 3.58317C39.6785 3.87609 39.8433 4.27324 39.8438 4.6875V25C39.8433 25.4143 39.6785 25.8114 39.3856 26.1043C39.0927 26.3973 38.6955 26.562 38.2812 26.5625H11.7188C11.3045 26.562 10.9073 26.3973 10.6144 26.1043C10.3215 25.8114 10.1567 25.4143 10.1562 25V4.6875ZM32.0312 44.1406C32.0312 45.4315 29.0241 46.875 25 46.875C18.9255 46.821 14.7486 43.7414 21.3104 41.8521C21.5702 42.625 22.066 43.2967 22.728 43.7726C23.39 44.2485 24.1847 44.5045 25 44.5045C25.8153 44.5045 26.61 44.2485 27.272 43.7726C27.934 43.2967 28.4298 42.625 28.6896 41.8521C30.8799 42.418 32.0312 43.3923 32.0312 44.1406ZM27.3438 40.625C27.3368 41.242 27.0868 41.8314 26.648 42.2653C26.2092 42.6992 25.617 42.9425 25 42.9425C24.3829 42.9425 23.7907 42.6991 23.3519 42.2652C22.9132 41.8314 22.6632 41.242 22.6562 40.6249V38.2812H27.3438V40.625ZM44.5312 35.1562C44.5308 35.5705 44.366 35.9677 44.0731 36.2606C43.7802 36.5535 43.383 36.7183 42.9688 36.7188H7.03125C6.61699 36.7183 6.21984 36.5535 5.92692 36.2606C5.634 35.9677 5.46922 35.5705 5.46875 35.1562V11.7188C5.46922 11.3045 5.634 10.9073 5.92692 10.6144C6.21984 10.3215 6.61699 10.1567 7.03125 10.1562H8.59375V25C8.59463 25.8285 8.92416 26.6229 9.51002 27.2087C10.0959 27.7946 10.8902 28.1241 11.7188 28.125H38.2812C39.1098 28.1241 39.9041 27.7946 40.49 27.2087C41.0758 26.6229 41.4054 25.8285 41.4062 25V10.1562H42.9688C43.383 10.1567 43.7802 10.3215 44.0731 10.6144C44.366 10.9073 44.5308 11.3045 44.5312 11.7188V35.1562Z" fill="white"/>
<path d="M19.7602 15.3969C19.9076 15.5387 20.1048 15.6169 20.3093 15.6149C20.5139 15.6129 20.7094 15.5307 20.8541 15.3861C20.9987 15.2415 21.0808 15.0459 21.0829 14.8413C21.0849 14.6368 21.0066 14.4396 20.8649 14.2922L17.511 10.9384L20.8649 7.58445C21.0066 7.43698 21.0849 7.23981 21.0829 7.03528C21.0808 6.83075 20.9987 6.63517 20.854 6.49054C20.7094 6.34591 20.5138 6.26377 20.3093 6.26176C20.1048 6.25974 19.9076 6.33801 19.7601 6.47976L15.8539 10.386C15.7813 10.4585 15.7238 10.5446 15.6845 10.6394C15.6452 10.7342 15.625 10.8358 15.625 10.9384C15.625 11.041 15.6452 11.1426 15.6845 11.2373C15.7238 11.3321 15.7813 11.4182 15.8539 11.4907L19.7602 15.3969Z" fill="white"/>
<path d="M29.1351 15.397C29.2077 15.4695 29.2938 15.5271 29.3885 15.5664C29.4833 15.6056 29.5849 15.6258 29.6875 15.6258C29.7901 15.6258 29.8917 15.6056 29.9865 15.5664C30.0812 15.5271 30.1673 15.4695 30.2399 15.397L34.1461 11.4907C34.2187 11.4182 34.2762 11.3321 34.3155 11.2373C34.3548 11.1425 34.375 11.0409 34.375 10.9383C34.375 10.8357 34.3548 10.7342 34.3155 10.6394C34.2762 10.5446 34.2187 10.4585 34.1461 10.386L30.2399 6.47972C30.0924 6.33798 29.8952 6.25973 29.6907 6.26176C29.4862 6.26379 29.2906 6.34594 29.146 6.49058C29.0013 6.63522 28.9192 6.8308 28.9172 7.03533C28.9152 7.23986 28.9934 7.43703 29.1352 7.58449L32.489 10.9384L29.1351 14.2923C29.0625 14.3648 29.005 14.4509 28.9657 14.5457C28.9265 14.6405 28.9062 14.742 28.9063 14.8446C28.9063 14.9472 28.9265 15.0488 28.9657 15.1436C29.005 15.2383 29.0626 15.3244 29.1351 15.397Z" fill="white"/>
<path d="M22.3485 17.1261C22.5389 17.2076 22.754 17.2101 22.9463 17.1332C23.1386 17.0562 23.2926 16.906 23.3742 16.7157L28.0617 5.77816C28.1025 5.68382 28.1242 5.58237 28.1257 5.47961C28.1271 5.37686 28.1083 5.27483 28.0703 5.17937C28.0322 5.0839 27.9757 4.99689 27.904 4.92331C27.8322 4.84972 27.7467 4.79102 27.6522 4.75057C27.5578 4.71011 27.4562 4.6887 27.3535 4.68755C27.2507 4.6864 27.1487 4.70554 27.0534 4.74388C26.958 4.78222 26.8712 4.839 26.7978 4.91096C26.7245 4.98292 26.666 5.06865 26.6259 5.16324L21.9384 16.1007C21.8568 16.2911 21.8542 16.5061 21.9311 16.6984C22.008 16.8906 22.1581 17.0445 22.3485 17.1261Z" fill="white"/>
<path d="M13.2812 21.0938H22.6562C22.8614 21.0907 23.0572 21.0071 23.2012 20.8609C23.3452 20.7147 23.426 20.5177 23.426 20.3125C23.426 20.1073 23.3452 19.9103 23.2012 19.7641C23.0572 19.6179 22.8614 19.5343 22.6562 19.5312H13.2812C13.076 19.5343 12.8803 19.6179 12.7362 19.7641C12.5922 19.9103 12.5115 20.1073 12.5115 20.3125C12.5115 20.5177 12.5922 20.7147 12.7362 20.8609C12.8803 21.0071 13.076 21.0907 13.2812 21.0938Z" fill="white"/>
<path d="M13.2813 24.2188H19.5313C19.7366 24.2158 19.9324 24.1323 20.0766 23.9861C20.2207 23.8399 20.3015 23.6428 20.3015 23.4375C20.3015 23.2322 20.2207 23.0351 20.0766 22.8889C19.9324 22.7427 19.7366 22.6592 19.5313 22.6562H13.2813C13.076 22.6592 12.8801 22.7427 12.7359 22.8889C12.5918 23.0351 12.511 23.2322 12.511 23.4375C12.511 23.6428 12.5918 23.8399 12.7359 23.9861C12.8801 24.1323 13.076 24.2158 13.2813 24.2188Z" fill="white"/>
</svg>
