<svg width="98" height="98" viewBox="0 0 98 98" fill="none" xmlns="http://www.w3.org/2000/svg">
<path fill-rule="evenodd" clip-rule="evenodd" d="M15.3125 53.5931C15.3128 34.9883 30.3952 19.9062 49 19.9062C67.6048 19.9062 82.6872 34.9883 82.6875 53.5931C81.4078 52.632 79.8173 52.0625 78.0938 52.0625H76.5625V50.5312C76.5625 46.3029 73.1346 42.875 68.9062 42.875C64.6779 42.875 61.25 46.3029 61.25 50.5312V75.0312C61.25 79.2596 64.6779 82.6875 68.9062 82.6875C73.1346 82.6875 76.5625 79.2596 76.5625 75.0312V73.5H78.0938C82.3221 73.5 85.75 70.0721 85.75 65.8438V53.5938C85.75 33.2973 69.2964 16.8438 49 16.8438C28.7036 16.8438 12.25 33.2973 12.25 53.5938V65.8438C12.25 70.0721 15.6779 73.5 19.9062 73.5H21.4375V75.0312C21.4375 79.2596 24.8654 82.6875 29.0938 82.6875C33.3221 82.6875 36.75 79.2596 36.75 75.0312V50.5312C36.75 46.3029 33.3221 42.875 29.0938 42.875C24.8654 42.875 21.4375 46.3029 21.4375 50.5312V52.0625H19.9062C18.1827 52.0625 16.5922 52.6321 15.3125 53.5931ZM24.5 71.9735V71.9688V53.5938V53.5887V50.5312C24.5 47.9941 26.5566 45.9375 29.0938 45.9375C31.6309 45.9375 33.6875 47.9941 33.6875 50.5312V75.0312C33.6875 77.5684 31.6309 79.625 29.0938 79.625C26.5566 79.625 24.5 77.5684 24.5 75.0312V71.9735ZM21.4375 55.125H19.9062C17.3705 55.125 15.3145 57.1796 15.3125 59.7151V65.8438C15.3125 68.3809 17.3691 70.4375 19.9062 70.4375H21.4375V55.125ZM76.5625 70.4375H78.0938C80.6309 70.4375 82.6875 68.3809 82.6875 65.8438V59.7114C82.6835 57.1776 80.6283 55.125 78.0938 55.125H76.5625V70.4375ZM73.5 50.5312C73.5 47.9941 71.4434 45.9375 68.9062 45.9375C66.3691 45.9375 64.3125 47.9941 64.3125 50.5312V75.0312C64.3125 77.5684 66.3691 79.625 68.9062 79.625C71.4434 79.625 73.5 77.5684 73.5 75.0312V50.5312Z" fill="#FF3116"/>
<path fill-rule="evenodd" clip-rule="evenodd" d="M49 55.125C49.8457 55.125 50.5312 55.8105 50.5312 56.6562V68.9062C50.5312 69.752 49.8457 70.4375 49 70.4375C48.1543 70.4375 47.4688 69.752 47.4688 68.9062V56.6562C47.4688 55.8105 48.1543 55.125 49 55.125Z" fill="#FF3116"/>
<path fill-rule="evenodd" clip-rule="evenodd" d="M55.125 58.1875C55.9707 58.1875 56.6562 58.873 56.6562 59.7188V65.8438C56.6562 66.6895 55.9707 67.375 55.125 67.375C54.2793 67.375 53.5938 66.6895 53.5938 65.8438V59.7188C53.5938 58.873 54.2793 58.1875 55.125 58.1875Z" fill="#FF3116"/>
<path fill-rule="evenodd" clip-rule="evenodd" d="M42.875 58.1875C43.7207 58.1875 44.4062 58.873 44.4062 59.7188V65.8438C44.4062 66.6895 43.7207 67.375 42.875 67.375C42.0293 67.375 41.3438 66.6895 41.3438 65.8438V59.7188C41.3438 58.873 42.0293 58.1875 42.875 58.1875Z" fill="#FF3116"/>
</svg>
