<svg width="50" height="50" viewBox="0 0 50 50" fill="none" xmlns="http://www.w3.org/2000/svg">
<path d="M36.3395 21.9659C36.3037 21.9511 36.2668 21.9391 36.2291 21.9299C35.2763 9.45332 25.36 0.463361 24.5362 1.69482C21.4803 4.1769 18.9531 7.24652 17.1039 10.7222C15.2548 14.1978 14.1213 18.009 13.7705 21.9302C13.2442 22.1574 5.57057 26.8842 5.46851 35.1358C5.46971 35.2592 5.49993 35.3806 5.55671 35.4902C5.6135 35.5998 5.69525 35.6945 5.79538 35.7666C5.89551 35.8387 6.0112 35.8863 6.13311 35.9055C6.25502 35.9246 6.37973 35.9149 6.49717 35.877C6.56201 35.8548 13.1012 33.7171 15.8531 36.4686C16.5635 37.2277 16.6969 38.3985 17.2601 39.3708C17.3228 39.5059 17.4228 39.6203 17.5483 39.7005C17.6739 39.7807 17.8197 39.8233 17.9687 39.8233H19.5035C19.4172 40.4491 19.4559 41.0858 19.6173 41.6966C19.7787 42.3074 20.0595 42.8801 20.4437 43.3816C20.5078 43.4778 20.5924 43.5585 20.6915 43.618C20.7906 43.6775 20.9016 43.7143 21.0166 43.7257C21.1317 43.7379 21.248 43.7239 21.357 43.685C21.466 43.646 21.5648 43.583 21.6461 43.5006C22.5402 42.6069 23.915 41.7497 24.343 41.9858C24.3827 42.0072 25.2884 42.5626 24.2362 47.4721C24.2097 47.6037 24.2172 47.7399 24.2581 47.8677C24.299 47.9955 24.372 48.1108 24.47 48.2024C24.568 48.2941 24.6879 48.3592 24.8182 48.3915C24.9485 48.4238 25.0849 48.4222 25.2144 48.3868C28.0107 47.6795 31.9847 44.3785 30.0526 39.8233H32.0312C32.1802 39.8232 32.326 39.7807 32.4516 39.7005C32.5772 39.6203 32.6772 39.506 32.74 39.3708C33.1662 38.4512 33.5471 37.5513 33.8677 36.7186C36.3755 33.689 43.4285 35.7929 43.5035 35.8771C43.6209 35.9146 43.7455 35.9241 43.8672 35.9048C43.989 35.8855 44.1045 35.8378 44.2044 35.7657C44.3044 35.6936 44.386 35.599 44.4428 35.4896C44.4995 35.3802 44.5298 35.259 44.5312 35.1357C44.5312 26.9746 36.6737 22.1666 36.3395 21.9659ZM25 3.32883C31.4614 8.59067 38.2273 21.0537 32.7902 35.1358H17.21C11.7556 21.0555 18.5776 8.53957 25 3.32883ZM7.08233 34.089C7.59579 28.8537 11.8309 25.2054 13.6451 23.8683C13.6419 27.3769 14.1822 30.8649 15.2468 34.2081C12.5094 32.9948 8.87138 33.6424 7.08233 34.089ZM17.8046 36.6983H22.1579C21.4029 37.0687 20.7398 37.6024 20.2165 38.2608H18.4707C18.2345 37.7371 18.0158 37.2175 17.8046 36.6983ZM26.0414 46.3659C27.1655 40.8604 24.8811 38.7961 21.2959 41.7192C19.8344 38.8911 24.0834 36.7853 26.3328 37.9934C27.0305 38.3078 27.635 38.7972 28.0877 39.4141C28.5405 40.031 28.8261 40.7545 28.9169 41.5143C29.3586 44.1671 27.4147 45.6586 26.0414 46.3659ZM31.5292 38.2608H29.1605C28.6334 37.6094 27.9745 37.0769 27.2269 36.6983H32.1949C31.9871 37.211 31.7688 37.7306 31.5292 38.2608ZM34.7518 34.209C35.8167 30.8655 36.3575 27.3773 36.3548 23.8683C38.1691 25.2054 42.4041 28.8538 42.9176 34.089C41.1279 33.642 37.489 32.9952 34.7518 34.209Z" fill="white"/>
<path d="M24.9997 26.5428H23.4372C23.2326 26.5467 23.0376 26.6307 22.8943 26.7768C22.7509 26.9229 22.6706 27.1194 22.6707 27.3241C22.6707 27.5288 22.751 27.7253 22.8943 27.8714C23.0377 28.0174 23.2326 28.1015 23.4372 28.1053H24.2184C24.2209 28.2132 24.2454 28.3194 24.2906 28.4174C24.3358 28.5153 24.4007 28.6029 24.4812 28.6747C24.5618 28.7465 24.6562 28.801 24.7587 28.8348C24.8611 28.8685 24.9694 28.8808 25.0769 28.8709C25.1843 28.861 25.2885 28.8291 25.3831 28.7772C25.4777 28.7253 25.5606 28.6545 25.6266 28.5692C25.6927 28.4839 25.7404 28.3859 25.767 28.2813C25.7935 28.1768 25.7983 28.0678 25.7809 27.9614C26.2958 27.7727 26.7282 27.4094 27.0029 26.9348C27.2775 26.4602 27.377 25.9044 27.2841 25.3639C27.1912 24.8235 26.9117 24.3328 26.4943 23.9772C26.0769 23.6216 25.548 23.4237 24.9996 23.4178C24.7924 23.4178 24.5937 23.3355 24.4472 23.189C24.3007 23.0425 24.2184 22.8437 24.2184 22.6365C24.2184 22.4293 24.3008 22.2306 24.4473 22.0841C24.5938 21.9376 24.7925 21.8553 24.9997 21.8553H26.5622C26.7668 21.8513 26.9616 21.7673 27.1049 21.6212C27.2481 21.4751 27.3284 21.2787 27.3284 21.0741C27.3284 20.8695 27.2481 20.673 27.1048 20.527C26.9616 20.3809 26.7667 20.2968 26.5622 20.2928H25.781C25.7786 20.1849 25.7541 20.0787 25.7089 19.9807C25.6637 19.8826 25.5989 19.795 25.5183 19.7231C25.4378 19.6513 25.3434 19.5967 25.2409 19.563C25.1384 19.5292 25.03 19.5169 24.9225 19.5268C24.815 19.5367 24.7108 19.5686 24.6162 19.6205C24.5216 19.6725 24.4386 19.7433 24.3726 19.8287C24.3066 19.914 24.2588 20.0121 24.2323 20.1167C24.2058 20.2213 24.2011 20.3303 24.2185 20.4368C23.7036 20.6255 23.2713 20.9887 22.9966 21.4633C22.722 21.9379 22.6225 22.4938 22.7154 23.0342C22.8083 23.5746 23.0878 24.0653 23.5052 24.4209C23.9226 24.7765 24.4515 24.9744 24.9998 24.9803C25.2043 24.9845 25.399 25.0686 25.5421 25.2147C25.6852 25.3608 25.7654 25.5571 25.7654 25.7616C25.7653 25.9661 25.6851 26.1625 25.542 26.3085C25.3989 26.4546 25.2042 26.5387 24.9997 26.5428Z" fill="white"/>
<path d="M25 32.0104C27.0713 32.008 29.057 31.1842 30.5217 29.7195C31.9863 28.2549 32.8101 26.2692 32.8125 24.1979C32.3833 13.8336 17.6152 13.8366 17.1875 24.1979C17.1899 26.2692 18.0138 28.255 19.4784 29.7196C20.943 31.1842 22.9287 32.008 25 32.0104ZM25 17.9479C26.657 17.9498 28.2456 18.6089 29.4173 19.7806C30.589 20.9523 31.2481 22.5409 31.25 24.1979C30.9358 32.4779 19.063 32.4757 18.75 24.1978C18.7519 22.5408 19.411 20.9522 20.5827 19.7805C21.7544 18.6089 23.343 17.9498 25 17.9479Z" fill="white"/>
</svg>
