<svg width="50" height="50" viewBox="0 0 50 50" fill="none" xmlns="http://www.w3.org/2000/svg">
<path d="M17.6641 9.46875C18.0955 9.46875 18.4453 9.11897 18.4453 8.6875C18.4453 8.25603 18.0955 7.90625 17.6641 7.90625C17.2326 7.90625 16.8828 8.25603 16.8828 8.6875C16.8828 9.11897 17.2326 9.46875 17.6641 9.46875Z" fill="white"/>
<path d="M38.0781 30.0717C38.0668 28.9496 37.7331 27.8543 37.1167 26.9166C36.5003 25.9788 35.6272 25.2381 34.6016 24.7827C34.4156 24.7123 34.2097 24.7155 34.026 24.7917C33.8423 24.8678 33.6946 25.0111 33.6129 25.1925C33.5312 25.3738 33.5217 25.5794 33.5864 25.7675C33.6511 25.9555 33.785 26.1118 33.9609 26.2045C34.7185 26.5395 35.3628 27.0865 35.8162 27.7797C36.2695 28.4729 36.5124 29.2825 36.5156 30.1108C36.5156 30.2983 36.5156 30.478 36.5156 30.6498C36.4913 30.8549 36.5492 31.0612 36.6766 31.2237C36.8039 31.3861 36.9904 31.4916 37.1953 31.517C38.4408 31.6893 39.5746 32.3273 40.3683 33.3024C41.1619 34.2775 41.5564 35.5173 41.4722 36.7718C41.388 38.0263 40.8313 39.2022 39.9144 40.0625C38.9975 40.9227 37.7885 41.4034 36.5312 41.4077H13.875C12.32 41.1061 10.9164 40.278 9.90046 39.0629C8.88449 37.8477 8.31819 36.3196 8.29687 34.7358C8.3226 33.2742 8.82265 31.8606 9.72166 30.7079C10.6207 29.5553 11.87 28.726 13.2812 28.3452C13.4784 28.2871 13.6447 28.1536 13.7442 27.9738C13.8436 27.7939 13.8682 27.5821 13.8125 27.3842C13.5803 26.3069 13.5066 25.2015 13.5937 24.103C13.5999 24.0004 13.5858 23.8976 13.5522 23.8004C13.5186 23.7033 13.4663 23.6137 13.3981 23.5368C13.3299 23.4599 13.2472 23.3972 13.1548 23.3523C13.0623 23.3073 12.962 23.281 12.8594 23.2748C12.6522 23.2624 12.4485 23.3328 12.2932 23.4705C12.1379 23.6082 12.0437 23.802 12.0312 24.0092C11.8903 25.0307 11.922 26.0686 12.125 27.0795C10.5674 27.6709 9.22388 28.7174 8.26938 30.083C7.31488 31.4485 6.79361 33.0698 6.77344 34.7358C6.79553 36.695 7.49568 38.5861 8.75479 40.0874C10.0139 41.5886 11.7542 42.6073 13.6797 42.9702H13.8203H36.5312C38.1579 43.018 39.7437 42.4562 40.9774 41.3949C42.211 40.3336 43.0035 38.8496 43.1992 37.234C43.3949 35.6185 42.9797 33.9882 42.0351 32.663C41.0905 31.3379 39.6848 30.4136 38.0937 30.0717H38.0781Z" fill="white"/>
<path d="M16.3203 23.4376H24.2188V29.0548C23.6975 29.2391 23.2582 29.6017 22.9784 30.0786C22.6987 30.5555 22.5965 31.1159 22.69 31.6608C22.7835 32.2058 23.0666 32.7001 23.4893 33.0564C23.9121 33.4128 24.4471 33.6083 25 33.6083C25.5529 33.6083 26.088 33.4128 26.5107 33.0564C26.9334 32.7001 27.2165 32.2058 27.31 31.6608C27.4035 31.1159 27.3013 30.5555 27.0216 30.0786C26.7419 29.6017 26.3025 29.2391 25.7813 29.0548V23.4376H32.6797C33.0056 23.4376 33.3283 23.3733 33.6292 23.2484C33.9302 23.1234 34.2036 22.9403 34.4337 22.7095C34.6637 22.4787 34.846 22.2048 34.97 21.9034C35.094 21.602 35.1573 21.2791 35.1563 20.9532V12.9142C35.1542 12.2587 34.8924 11.6308 34.4281 11.168C33.9639 10.7053 33.3352 10.4454 32.6797 10.4454H32.6172V10.3751C32.6151 9.71964 32.3533 9.09173 31.8891 8.62897C31.4249 8.16621 30.7961 7.90636 30.1406 7.90636H22.8203C22.808 7.25155 22.5376 6.62809 22.068 6.17161C21.5983 5.71513 20.9674 5.46257 20.3125 5.46886H16.5391C15.8823 5.46886 15.2523 5.72979 14.7879 6.19423C14.3234 6.65868 14.0625 7.2886 14.0625 7.94543V21.1642C14.0615 21.4617 14.1191 21.7565 14.232 22.0318C14.3449 22.3071 14.5109 22.5574 14.7206 22.7685C14.9302 22.9796 15.1794 23.1474 15.4539 23.2622C15.7284 23.377 16.0228 23.4366 16.3203 23.4376ZM25 32.0314C24.8455 32.0314 24.6944 31.9855 24.566 31.8997C24.4375 31.8139 24.3374 31.6918 24.2782 31.5491C24.2191 31.4063 24.2036 31.2492 24.2338 31.0977C24.2639 30.9462 24.3383 30.8069 24.4476 30.6977C24.5568 30.5884 24.6961 30.514 24.8476 30.4839C24.9991 30.4537 25.1562 30.4692 25.299 30.5283C25.4417 30.5875 25.5638 30.6876 25.6496 30.8161C25.7354 30.9446 25.7813 31.0956 25.7813 31.2501C25.7813 31.4573 25.699 31.656 25.5524 31.8025C25.4059 31.9491 25.2072 32.0314 25 32.0314ZM33.5938 12.9142V20.9532C33.5948 21.0739 33.5719 21.1936 33.5264 21.3054C33.481 21.4172 33.4138 21.5189 33.3288 21.6046C33.2438 21.6903 33.1427 21.7584 33.0313 21.8048C32.9199 21.8512 32.8004 21.8751 32.6797 21.8751H18.4766C18.5495 21.6479 18.5864 21.4106 18.586 21.172V12.9142C18.5858 12.7918 18.6105 12.6707 18.6585 12.5581C18.7064 12.4455 18.7767 12.3438 18.865 12.2591C18.9534 12.1745 19.0579 12.1085 19.1724 12.0654C19.2869 12.0222 19.409 12.0027 19.5313 12.0079H32.6797C32.7994 12.0069 32.9181 12.0296 33.0289 12.0747C33.1398 12.1197 33.2406 12.1863 33.3256 12.2706C33.4106 12.3548 33.478 12.4551 33.524 12.5656C33.5701 12.676 33.5938 12.7945 33.5938 12.9142ZM15.625 7.94543C15.625 7.703 15.7213 7.47051 15.8927 7.29909C16.0642 7.12767 16.2967 7.03136 16.5391 7.03136H20.3125C20.547 7.03315 20.7718 7.12497 20.9404 7.28782C21.1091 7.45068 21.2088 7.67212 21.2188 7.90636H20.3125C20.1053 7.90636 19.9066 7.98868 19.7601 8.13519C19.6136 8.2817 19.5313 8.48041 19.5313 8.68761C19.5313 8.89481 19.6136 9.09353 19.7601 9.24004C19.9066 9.38655 20.1053 9.46886 20.3125 9.46886H30.1406C30.2603 9.46783 30.379 9.49051 30.4898 9.53559C30.6007 9.58067 30.7015 9.64727 30.7865 9.73152C30.8715 9.81578 30.9389 9.91603 30.985 10.0265C31.031 10.137 31.0547 10.2554 31.0547 10.3751V10.4454H19.5313C18.8758 10.4454 18.247 10.7053 17.7828 11.168C17.3186 11.6308 17.0568 12.2587 17.0547 12.9142V21.1642C17.0651 21.2622 17.0547 21.3613 17.0243 21.4551C16.9939 21.5489 16.9441 21.6352 16.8782 21.7085C16.8122 21.7818 16.7316 21.8404 16.6416 21.8805C16.5515 21.9206 16.4541 21.9413 16.3555 21.9413C16.2569 21.9413 16.1594 21.9206 16.0694 21.8805C15.9793 21.8404 15.8987 21.7818 15.8328 21.7085C15.7668 21.6352 15.7171 21.5489 15.6867 21.4551C15.6562 21.3613 15.6459 21.2622 15.6563 21.1642L15.625 7.94543Z" fill="white"/>
</svg>
