<svg width="98" height="98" viewBox="0 0 98 98" fill="none" xmlns="http://www.w3.org/2000/svg">
<path fill-rule="evenodd" clip-rule="evenodd" d="M49 55.1248C49 55.6719 48.7081 56.1773 48.2344 56.4508L39.0469 61.7552C38.5731 62.0289 37.9894 62.0289 37.5156 61.7552C37.0419 61.4817 36.75 60.9763 36.75 60.4292V49.8203C36.75 49.2732 37.0419 48.7678 37.5156 48.4943C37.9894 48.2207 38.5731 48.2207 39.0469 48.4943L48.2344 53.7987C48.7081 54.0722 49 54.5776 49 55.1248ZM39.8125 52.4725V57.7769L44.4062 55.1248L39.8125 52.4725Z" fill="#FF3116"/>
<path fill-rule="evenodd" clip-rule="evenodd" d="M41.3438 44.4062C35.4239 44.4062 30.625 49.2052 30.625 55.125C30.625 61.0448 35.4239 65.8438 41.3438 65.8438C47.2636 65.8438 52.0625 61.0448 52.0625 55.125C52.0625 49.2052 47.2636 44.4062 41.3438 44.4062ZM27.5625 55.125C27.5625 47.5138 33.7325 41.3438 41.3438 41.3438C48.955 41.3438 55.125 47.5138 55.125 55.125C55.125 62.7362 48.955 68.9062 41.3438 68.9062C33.7325 68.9062 27.5625 62.7362 27.5625 55.125Z" fill="#FF3116"/>
<path fill-rule="evenodd" clip-rule="evenodd" d="M37.0114 27.5625H30.625C28.0879 27.5625 26.0312 29.6191 26.0312 32.1562V36.75H62.7812C66.4922 36.75 69.5866 39.3902 70.2884 42.8948L78.5622 37.2336C81.611 35.1475 85.75 37.3308 85.75 41.0249V69.2251C85.75 72.9192 81.611 75.1025 78.5622 73.0164L70.2884 67.3552C69.5866 70.8598 66.4922 73.5 62.7812 73.5H19.9062C15.6779 73.5 12.25 70.0721 12.25 65.8437V44.4062C12.25 40.1779 15.6779 36.75 19.9062 36.75H22.9688V32.1562C22.9688 27.9279 26.3966 24.5 30.625 24.5H37.0114C37.642 22.7158 39.3436 21.4375 41.3438 21.4375H59.7188C62.2559 21.4375 64.3125 23.4941 64.3125 26.0312C64.3125 28.5684 62.2559 30.625 59.7188 30.625H41.3438C39.3436 30.625 37.642 29.3467 37.0114 27.5625ZM19.9062 39.8125C17.3691 39.8125 15.3125 41.8691 15.3125 44.4062V65.8437C15.3125 68.3809 17.3691 70.4375 19.9062 70.4375H62.7812C65.3184 70.4375 67.375 68.3809 67.375 65.8437V44.4062C67.375 41.8691 65.3184 39.8125 62.7812 39.8125H19.9062ZM39.8125 26.0312C39.8125 25.1855 40.498 24.5 41.3438 24.5H59.7188C60.5645 24.5 61.25 25.1855 61.25 26.0312C61.25 26.877 60.5645 27.5625 59.7188 27.5625H41.3438C40.498 27.5625 39.8125 26.877 39.8125 26.0312ZM80.2915 70.4888L70.4375 63.7465V46.5034L80.2915 39.7612C81.3078 39.0659 82.6875 39.7935 82.6875 41.0249V69.2251C82.6875 70.4565 81.3078 71.1841 80.2915 70.4888Z" fill="#FF3116"/>
</svg>
