<svg width="98" height="98" viewBox="0 0 98 98" fill="none" xmlns="http://www.w3.org/2000/svg">
<path d="M81.1562 26.0312C81.1562 26.877 80.4707 27.5625 79.625 27.5625C78.7793 27.5625 78.0938 26.877 78.0938 26.0312C78.0938 25.1855 78.7793 24.5 79.625 24.5C80.4707 24.5 81.1562 25.1855 81.1562 26.0312Z" fill="#FF3116"/>
<path d="M76.5625 26.0312C76.5625 26.877 75.877 27.5625 75.0312 27.5625C74.1855 27.5625 73.5 26.877 73.5 26.0312C73.5 25.1855 74.1855 24.5 75.0312 24.5C75.877 24.5 76.5625 25.1855 76.5625 26.0312Z" fill="#FF3116"/>
<path d="M71.9688 26.0312C71.9688 26.877 71.2832 27.5625 70.4375 27.5625C69.5918 27.5625 68.9062 26.877 68.9062 26.0312C68.9062 25.1855 69.5918 24.5 70.4375 24.5C71.2832 24.5 71.9688 25.1855 71.9688 26.0312Z" fill="#FF3116"/>
<path d="M37.8715 67.375H70.4375C71.2832 67.375 71.9688 68.0605 71.9688 68.9062C71.9688 69.752 71.2832 70.4375 70.4375 70.4375H37.8715C37.342 71.3529 36.3523 71.9688 35.2188 71.9688C34.0852 71.9688 33.0955 71.3529 32.566 70.4375H27.5625C26.7168 70.4375 26.0312 69.752 26.0312 68.9062C26.0312 68.0605 26.7168 67.375 27.5625 67.375H32.566C33.0955 66.4596 34.0852 65.8438 35.2188 65.8438C36.3523 65.8438 37.342 66.4596 37.8715 67.375Z" fill="#FF3116"/>
<path fill-rule="evenodd" clip-rule="evenodd" d="M56.6562 50.531C56.6562 51.0781 56.3644 51.5836 55.8906 51.8571L46.7031 57.1615C46.2294 57.4351 45.6456 57.4351 45.1719 57.1615C44.6981 56.888 44.4062 56.3825 44.4062 55.8354V45.2266C44.4062 44.6795 44.6981 44.174 45.1719 43.9005C45.6456 43.6269 46.2294 43.6269 46.7031 43.9005L55.8906 49.2049C56.3644 49.4784 56.6562 49.9839 56.6562 50.531ZM47.4688 47.8789V53.1833L52.0625 50.531L47.4688 47.8789Z" fill="#FF3116"/>
<path fill-rule="evenodd" clip-rule="evenodd" d="M49 39.8125C43.0802 39.8125 38.2812 44.6114 38.2812 50.5312C38.2812 56.4511 43.0802 61.25 49 61.25C54.9198 61.25 59.7188 56.4511 59.7188 50.5312C59.7188 44.6114 54.9198 39.8125 49 39.8125ZM35.2188 50.5312C35.2188 42.92 41.3888 36.75 49 36.75C56.6112 36.75 62.7812 42.92 62.7812 50.5312C62.7812 58.1425 56.6112 64.3125 49 64.3125C41.3888 64.3125 35.2188 58.1425 35.2188 50.5312Z" fill="#FF3116"/>
<path fill-rule="evenodd" clip-rule="evenodd" d="M15.3125 18.375C12.7754 18.375 10.7188 20.4316 10.7188 22.9688V75.0312C10.7188 77.5684 12.7754 79.625 15.3125 79.625H82.6875C85.2246 79.625 87.2812 77.5684 87.2812 75.0312V22.9688C87.2812 20.4316 85.2246 18.375 82.6875 18.375H15.3125ZM84.2188 33.6875H13.7812V75.0312C13.7812 75.877 14.4668 76.5625 15.3125 76.5625H82.6875C83.5332 76.5625 84.2188 75.877 84.2188 75.0312V33.6875ZM84.2188 30.625V22.9688C84.2188 22.123 83.5332 21.4375 82.6875 21.4375H15.3125C14.4668 21.4375 13.7812 22.123 13.7812 22.9688V30.625H84.2188Z" fill="#FF3116"/>
</svg>
