<svg width="62" height="62" viewBox="0 0 62 62" fill="none" xmlns="http://www.w3.org/2000/svg">
<path d="M5.09082 5.79688H56.9096V56.2024H5.09082V5.79688Z" fill="url(#paint0_radial_542_2083)"/>
<path d="M5.09072 5.79677H56.9095V56.2023H5.09072V5.79677ZM2.73535 58.5578H59.2649V3.44141H2.73535V58.5578ZM40.8457 26.0532C38.9849 26.0532 38.349 26.9953 38.349 27.7726C38.349 28.6205 38.7729 29.2094 41.2697 30.5049C44.9676 32.295 46.1218 34.0144 46.1218 36.5347C46.1218 40.3033 43.2482 42.329 39.3618 42.329C37.3126 42.329 35.546 41.905 34.5332 41.3162C34.3683 41.2456 34.3448 41.1278 34.3448 40.9393V37.4769C34.3448 37.2414 34.4625 37.1706 34.6275 37.2885C36.1114 38.2542 37.8072 38.6781 39.3618 38.6781C41.2226 38.6781 41.9998 37.9009 41.9998 36.8409C41.9998 35.993 41.4581 35.2393 39.0791 34.0144C35.7344 32.4128 34.3448 30.7876 34.3448 28.0789C34.3448 25.0403 36.7238 22.5201 40.8457 22.5201C42.8713 22.5201 44.2846 22.8264 45.0618 23.1796C45.2502 23.2974 45.2973 23.4858 45.2973 23.6507V26.8775C45.2973 27.0659 45.1796 27.1837 44.944 27.113C43.9076 26.4537 42.3767 26.0532 40.8457 26.0532ZM20.5892 28.8561C21.131 28.9032 21.555 28.9032 22.4971 28.9032C25.253 28.9032 27.8439 27.9376 27.8439 24.1925C27.8439 21.2012 25.9831 19.6936 22.8505 19.6936C21.9084 19.6936 21.0132 19.7407 20.5892 19.7643V28.8561ZM16.3967 16.349C16.3967 16.1841 16.7265 16.0662 16.9148 16.0662C18.4224 15.9956 20.66 15.9485 22.9918 15.9485C29.5162 15.9485 32.06 19.5287 32.06 24.0982C32.06 30.0809 27.7261 32.6483 22.4029 32.6483C21.5079 32.6483 21.2017 32.6012 20.5657 32.6012V41.6459C20.5657 41.8343 20.495 41.9285 20.2831 41.9285H16.6793C16.4909 41.9285 16.3966 41.8579 16.3966 41.6459V16.349H16.3967Z" fill="#31C5F0"/>
<defs>
<radialGradient id="paint0_radial_542_2083" cx="0" cy="0" r="1" gradientUnits="userSpaceOnUse" gradientTransform="translate(22.1574 17.0928) scale(39.3822 38.1292)">
<stop stop-color="#34364E" stop-opacity="0.98"/>
<stop offset="1" stop-color="#0C0824"/>
</radialGradient>
</defs>
</svg>
