<svg width="62" height="62" viewBox="0 0 62 62" fill="none" xmlns="http://www.w3.org/2000/svg">
<path d="M33.1313 31.0013C33.1313 26.0064 37.08 21.9609 41.947 21.9609C46.8178 21.9609 50.7626 26.0026 50.7626 31.0013C50.7626 35.9962 46.8178 40.0417 41.947 40.0417C37.0838 40.0417 33.1313 36.0001 33.1313 31.0013Z" fill="#1ABCFE"/>
<path d="M15.5 49.0833C15.5 44.0884 19.4486 40.0391 24.3156 40.0391H33.1313V49.0833C33.1313 54.0743 29.1826 58.1237 24.3156 58.1237C19.4486 58.1237 15.5 54.0743 15.5 49.0833Z" fill="#0ACF83"/>
<path d="M33.1313 3.875V21.9596H41.947C46.8178 21.9596 50.7626 17.9102 50.7626 12.9154C50.7626 7.92437 46.8178 3.875 41.947 3.875H33.1313Z" fill="#FF7262"/>
<path d="M15.5 12.9154C15.5 17.9102 19.4486 21.9596 24.3156 21.9596H33.1313V3.875H24.3156C19.4486 3.875 15.5 7.92437 15.5 12.9154Z" fill="#F24E1E"/>
<path d="M15.5 31.0013C15.5 35.9962 19.4486 40.0417 24.3156 40.0417H33.1313V21.9609H24.3156C19.4486 21.9609 15.5 26.0026 15.5 31.0013Z" fill="#A259FF"/>
</svg>
