<svg width="61" height="46" viewBox="0 0 61 46" fill="none" xmlns="http://www.w3.org/2000/svg">
<path d="M45.9376 0.875C53.9112 0.875 60.3751 7.33889 60.3751 15.3125C60.3751 21.2019 57.3092 26.9003 52.7333 27.9999C50.9683 28.4241 49.5626 30.6891 49.8646 33.2749C50.2689 36.736 53.3988 40.2327 59.5958 42.9882C60.9756 43.6018 60.3979 45.6774 58.8995 45.4898C42.749 43.4678 31.554 32.9388 31.5002 18.0421C31.5001 7.79725 37.5528 0.875 45.9376 0.875Z" fill="#3B8EFA"/>
<path d="M14.4373 0.875C22.4109 0.875 28.8748 7.33889 28.8748 15.3125C28.8748 21.2019 25.809 26.9003 21.2331 27.9999C19.468 28.4241 18.0624 30.6891 18.3644 33.2749C18.7687 36.736 21.8985 40.2327 28.0956 42.9882C29.4754 43.6018 28.8976 45.6774 27.3993 45.4898C11.2488 43.4678 0.0537075 32.9388 4.63634e-09 18.0421C-0.000193432 7.79725 6.05251 0.875 14.4373 0.875Z" fill="#3B8EFA"/>
</svg>
